<?xml version="1.0" encoding="UTF-8" standalone="no"?>
<!-- Created with Inkscape (http://www.inkscape.org/) -->

<svg viewBox="0 0 250 250" preserveAspectRatio="xMidYMid"
   xmlns="http://www.w3.org/2000/svg"
   xmlns:xlink="http://www.w3.org/1999/xlink"
   width="250"
   height="250"
>
  <defs
     id="defs4">
    <linearGradient
       id="linearGradient4197">
      <stop
         id="stop4199"
         style="stop-color:#000000;stop-opacity:1"
         offset="0" />
      <stop
         id="stop4201"
         style="stop-color:#ffffff;stop-opacity:1"
         offset="1" />
    </linearGradient>
    <clipPath
       id="clipPath5035">
      <path
         d="m 207.294,204.836 89.727,0 0,-21.338 -89.727,0 0,21.338 z"
         id="path5037" />
    </clipPath>
    <clipPath
       id="clipPath5027">
      <path
         d="m 251.901,204.646 c -24.734,0 -44.447,-5.45 -44.447,-11.205 l 0,0 c 0,-4.892 17.532,-9.737 44.447,-9.737 l 0,0 0.033,0 c -19.89,0 -32.845,4.85 -32.845,9.737 l 0,0 c 0,5.751 14.572,11.196 32.855,11.205 l 0,0 -0.043,0 z m 33.418,-11.205 c 0,-5.265 -13.324,-9.705 -33.121,-9.737 l 0,0 c 26.758,0.032 44.76,4.472 44.76,9.737 l 0,0 c 0,5.727 -20.15,11.16 -44.754,11.202 l 0,0 c 18.205,-0.042 33.115,-5.475 33.115,-11.202"
         id="path5029" />
    </clipPath>
    <clipPath
       id="clipPath5053">
      <path
         d="m 251.944,204.646 c 0.087,0 0.174,0 0.26,-0.003 l 0,0 c -0.076,0.003 -0.148,0.003 -0.223,0.003 l 0,0 -0.037,0 z m -0.01,-20.942 0.047,0 0.217,0 -0.264,0 z"
         id="path5055" />
    </clipPath>
    <clipPath
       id="clipPath5073">
      <path
         d="m 218.804,204.979 66.715,0 0,-21.652 -66.715,0 0,21.652 z"
         id="path5075" />
    </clipPath>
    <clipPath
       id="clipPath5065">
      <path
         d="m 219.089,193.441 c 0,-4.887 12.955,-9.737 32.845,-9.737 l 0,0 0.264,0 c 19.797,0.032 33.121,4.472 33.121,9.737 l 0,0 c 0,5.727 -14.91,11.16 -33.115,11.202 l 0,0 c -0.086,0.003 -0.173,0.003 -0.26,0.003 l 0,0 c -18.283,-0.009 -32.855,-5.454 -32.855,-11.205"
         id="path5067" />
    </clipPath>
    <linearGradient
       x1="0"
       y1="0"
       x2="1"
       y2="0"
       id="linearGradient5107"
       gradientUnits="userSpaceOnUse"
       gradientTransform="matrix(0,155.183,155.183,0,251.902,180.938)"
       spreadMethod="pad">
      <stop
         id="stop5109"
         style="stop-color:#333132;stop-opacity:1"
         offset="0" />
      <stop
         id="stop5111"
         style="stop-color:#d1d3d4;stop-opacity:1"
         offset="1" />
    </linearGradient>
    <clipPath
       id="clipPath5099">
      <path
         d="m 183.612,332.87 136.58,0 0,-147.171 -136.58,0 0,147.171 z"
         id="path5101" />
    </clipPath>
    <clipPath
       id="clipPath5091">
      <path
         d="m 0,515.91 728.5,0 L 728.5,0 0,0 0,515.91 z"
         id="path5093" />
    </clipPath>
    <linearGradient
       x1="0"
       y1="0"
       x2="1"
       y2="0"
       id="linearGradient5139"
       gradientUnits="userSpaceOnUse"
       gradientTransform="matrix(0,147.749,147.749,0,251.274,185.264)"
       spreadMethod="pad">
      <stop
         id="stop5141"
         style="stop-color:#951a1d;stop-opacity:1"
         offset="0" />
      <stop
         id="stop5143"
         style="stop-color:#de1f26;stop-opacity:1"
         offset="1" />
    </linearGradient>
    <linearGradient
       x1="0"
       y1="0"
       x2="1"
       y2="0"
       id="linearGradient5159"
       gradientUnits="userSpaceOnUse"
       gradientTransform="matrix(0,150.616,150.616,0,251.257,183.795)"
       spreadMethod="pad">
      <stop
         id="stop5161"
         style="stop-color:#d91f26;stop-opacity:1"
         offset="0" />
      <stop
         id="stop5163"
         style="stop-color:#bc2025;stop-opacity:1"
         offset="1" />
    </linearGradient>
    <linearGradient
       x1="0"
       y1="0"
       x2="1"
       y2="0"
       id="linearGradient5179"
       gradientUnits="userSpaceOnUse"
       gradientTransform="matrix(0,147.751,147.751,0,251.274,185.262)"
       spreadMethod="pad">
      <stop
         id="stop5181"
         style="stop-color:#8a181a;stop-opacity:1"
         offset="0" />
      <stop
         id="stop5183"
         style="stop-color:#d91f26;stop-opacity:1"
         offset="1" />
    </linearGradient>
    <linearGradient
       x1="0"
       y1="0"
       x2="1"
       y2="0"
       id="linearGradient5199"
       gradientUnits="userSpaceOnUse"
       gradientTransform="matrix(0,150.618,150.618,0,251.274,183.795)"
       spreadMethod="pad">
      <stop
         id="stop5201"
         style="stop-color:#a81e22;stop-opacity:1"
         offset="0" />
      <stop
         id="stop5203"
         style="stop-color:#d02026;stop-opacity:1"
         offset="0.395" />
      <stop
         id="stop5205"
         style="stop-color:#e51e26;stop-opacity:1"
         offset="1" />
    </linearGradient>
    <radialGradient
       cx="124.248"
       cy="124.993"
       r="4.040"
       fx="124.248"
       fy="124.993"
       id="radialGradient4203"
       xlink:href="#linearGradient4197"
       gradientUnits="userSpaceOnUse" />
    <radialGradient
       cx="124.248"
       cy="124.993"
       r="4.040"
       fx="124.248"
       fy="124.993"
       id="radialGradient4298"
       xlink:href="#linearGradient4197"
       gradientUnits="userSpaceOnUse" />
  </defs>
  <g
     id="layer2"
     style="display:inline">
    <path
       d="m 212.142,117.5 c 0,55.031 -44.611,99.642 -99.642,99.642 -55.031,0 -99.642,-44.611 -99.642,-99.642 0,-55.031 44.611,-99.642 99.642,-99.642 55.031,0 99.642,44.611 99.642,99.642 z"
       transform="matrix(1.220,0,0,1.220,-12.330,-18.433)"
       id="path3415"
       style="fill:#ececec;fill-opacity:1;stroke:none" />
    <path
       d="m 117.589,109.017 0.024,10.033 2.722,-9.648 -2.573,9.698 5.127,-8.615 -4.996,8.701 7.182,-6.994 -7.078,7.112 8.748,-4.897 -8.677,5.037 9.717,-2.466 -9.685,2.620 10.024,0.132 -10.033,0.024 9.648,2.722 -9.698,-2.573 8.615,5.127 -8.701,-4.996 6.994,7.182 -7.112,-7.078 4.897,8.748 -5.037,-8.677 2.466,9.717 -2.620,-9.685 -0.132,10.024 -0.024,-10.033 -2.722,9.648 2.573,-9.698 -5.127,8.615 4.996,-8.701 -7.182,6.994 7.078,-7.112 -8.748,4.897 8.677,-5.037 -9.717,2.466 9.685,-2.620 -10.024,-0.132 10.033,-0.024 -9.648,-2.722 9.698,2.573 -8.615,-5.127 8.701,4.996 -6.994,-7.182 7.112,7.078 -4.897,-8.748 5.037,8.677 -2.466,-9.717 2.620,9.685 z"
       transform="matrix(11.471,0,0,11.471,-1222.956,-1247.538)"
       id="path4300"
       style="fill:#000000;fill-opacity:1;stroke:none;display:inline" />
    <path
       d="m 212.142,117.5 c 0,55.031 -44.611,99.642 -99.642,99.642 -55.031,0 -99.642,-44.611 -99.642,-99.642 0,-55.031 44.611,-99.642 99.642,-99.642 55.031,0 99.642,44.611 99.642,99.642 z"
       transform="matrix(1.124,0,0,1.124,-1.469,-7.090)"
       id="path4302"
       style="fill:#ececec;fill-opacity:1;stroke:none" />
    <path
       d="m 212.142,117.5 c 0,55.031 -44.611,99.642 -99.642,99.642 -55.031,0 -99.642,-44.611 -99.642,-99.642 0,-55.031 44.611,-99.642 99.642,-99.642 55.031,0 99.642,44.611 99.642,99.642 z"
       transform="matrix(0.908,0,0,0.908,22.747,18.202)"
       id="path3413"
       style="opacity:0.817;fill:#800000;fill-opacity:1;stroke:#800000;stroke-width:4.599;stroke-linecap:butt;stroke-miterlimit:4;stroke-opacity:1" />
    <g
       transform="matrix(1.049,0,0,1.049,9.527,-879.616)"
       id="g5782">
      <use
         transform="matrix(0,1,-1,0,1067.009,847.009)"
         id="use3023"
         x="0"
         y="0"
         width="220"
         height="220"
         xlink:href="#use3021" />
      <use
         transform="matrix(0.408,0.408,-0.408,0.408,455.928,521.230)"
         id="use3021"
         x="0"
         y="0"
         width="220"
         height="220"
         xlink:href="#g3013" />
      <g
         transform="translate(0.225,12.105)"
         id="g3013">
        <g
           id="g3003">
          <path
             d="m 109.762,858.927 0,85.951 -8.822,0 z"
             id="path2987"
             style="fill:#000000;stroke:#000000;stroke-width:0.352px;stroke-linecap:butt;stroke-linejoin:miter;stroke-opacity:1" />
          <path
             d="m 109.787,858.927 0,85.951 8.822,0 z"
             id="path2989"
             style="fill:#ffffff;stroke:#000000;stroke-width:0.352px;stroke-linecap:butt;stroke-linejoin:miter;stroke-opacity:1" />
        </g>
        <use
           transform="matrix(-1,0,0,-1,219.549,1889.807)"
           id="use3007"
           x="0"
           y="0"
           width="220"
           height="220"
           xlink:href="#g3003" />
      </g>
      <use
         transform="matrix(0,1,-1,0,1067.009,847.009)"
         id="use3019"
         x="0"
         y="0"
         width="220"
         height="220"
         xlink:href="#g3013" />
    </g>
    <path
       d="m 135.865,126.256 c 0,6.136 -4.974,11.111 -11.111,11.111 -6.136,0 -11.111,-4.974 -11.111,-11.111 0,-6.136 4.974,-11.111 11.111,-11.111 6.136,0 11.111,4.974 11.111,11.111 z"
       transform="translate(0.246,-1.256)"
       id="path4185"
       style="fill:#ececec;fill-opacity:1;stroke:none" />
    <path
       d="m 128.289,124.993 c 0,2.231 -1.809,4.040 -4.040,4.040 -2.231,0 -4.040,-1.809 -4.040,-4.040 0,-2.231 1.809,-4.040 4.040,-4.040 2.231,0 4.040,1.809 4.040,4.040 z"
       transform="matrix(2.103,0,0,2.103,-136.374,-137.941)"
       id="path4187"
       style="fill:url(#radialGradient4298);fill-opacity:1;stroke:none" />
    <path
       d="m 117.589,109.017 0.076,9.826 3.982,-8.983 -3.689,9.107 7.117,-6.775 -6.893,7.002 9.168,-3.535 -9.048,3.831 9.823,0.241 -9.826,0.076 8.983,3.982 -9.107,-3.689 6.775,7.117 -7.002,-6.893 3.535,9.168 -3.831,-9.048 -0.241,9.823 -0.076,-9.826 -3.982,8.983 3.689,-9.107 -7.117,6.775 6.893,-7.002 -9.168,3.535 9.048,-3.831 -9.823,-0.241 9.826,-0.076 -8.983,-3.982 9.107,3.689 -6.775,-7.117 7.002,6.893 -3.535,-9.168 3.831,9.048 z"
       transform="matrix(0.800,0,0,0.800,30.999,29.285)"
       id="path4295"
       style="fill:#000000;fill-opacity:1;stroke:none;display:inline" />
  </g>
  <g
     id="layer3"
     style="display:inline">
    <g
       transform="translate(0,-802.362)"
       id="text4218"
       style=";;;line-height:125%;letter-spacing:0px;word-spacing:0px;fill:#000000;fill-opacity:1;stroke:none;">
      <path
         d="m 120.110,827.007 0,-13.557 1.840,0 7.120,10.644 0,-10.644 1.720,0 0,13.557 -1.840,0 -7.120,-10.653 0,10.653 z"
         id="path3063" />
    </g>
    <g
       transform="matrix(0,1,-1,0,0,0)"
       id="text4252"
       style=";;;line-height:125%;letter-spacing:0px;word-spacing:0px;fill:#000000;fill-opacity:1;stroke:none;">
      <path
         d="m 118.808,-222.445 0,-13.557 9.802,0 0,1.599 -8.008,0 0,4.152 7.499,0 0,1.590 -7.499,0 0,4.614 8.322,0 0,1.599 z"
         id="path3066" />
    </g>
    <g
       transform="matrix(0,-1,1,0,0,0)"
       id="text4256"
       style=";;;line-height:125%;letter-spacing:0px;word-spacing:0px;fill:#000000;fill-opacity:1;stroke:none;">
      <path
         d="m -128.985,26.393 -3.597,-13.557 1.840,0 2.062,8.886 c 0.221,0.930 0.413,1.855 0.573,2.774 0.345,-1.448 0.548,-2.284 0.610,-2.506 l 2.580,-9.155 2.163,0 1.942,6.861 c 0.487,1.701 0.838,3.301 1.054,4.799 0.172,-0.856 0.397,-1.840 0.675,-2.949 l 2.126,-8.711 1.803,0 -3.717,13.557 -1.729,0 -2.857,-10.329 c -0.240,-0.863 -0.382,-1.393 -0.425,-1.590 -0.141,0.622 -0.274,1.152 -0.397,1.590 l -2.876,10.329 z"
         id="path3069" />
    </g>
    <g
       transform="scale(-1,-1)"
       id="text4260"
       style=";;;line-height:125%;letter-spacing:0px;word-spacing:0px;fill:#000000;fill-opacity:1;stroke:none;">
      <path
         d="m -130.310,-227.444 1.692,-0.147 c 0.080,0.678 0.266,1.234 0.559,1.669 0.292,0.434 0.747,0.786 1.364,1.054 0.616,0.268 1.310,0.402 2.080,0.402 0.684,0 1.288,-0.101 1.812,-0.305 0.524,-0.203 0.913,-0.482 1.169,-0.836 0.255,-0.354 0.383,-0.741 0.383,-1.160 -1e-5,-0.425 -0.123,-0.796 -0.369,-1.114 -0.246,-0.317 -0.653,-0.584 -1.220,-0.799 -0.363,-0.141 -1.168,-0.362 -2.413,-0.661 -1.245,-0.299 -2.117,-0.581 -2.617,-0.846 -0.647,-0.339 -1.129,-0.759 -1.447,-1.262 -0.317,-0.502 -0.476,-1.065 -0.476,-1.687 -1e-5,-0.684 0.194,-1.323 0.582,-1.918 0.388,-0.594 0.955,-1.046 1.701,-1.354 0.745,-0.308 1.575,-0.462 2.487,-0.462 1.004,1e-5 1.891,0.161 2.658,0.485 0.767,0.323 1.357,0.799 1.770,1.428 0.413,0.628 0.635,1.340 0.665,2.136 l -1.720,0.129 c -0.092,-0.856 -0.405,-1.504 -0.938,-1.942 -0.533,-0.437 -1.320,-0.656 -2.362,-0.656 -1.085,1e-5 -1.875,0.198 -2.372,0.596 -0.496,0.397 -0.744,0.877 -0.744,1.438 0,0.487 0.175,0.887 0.527,1.202 0.345,0.314 1.246,0.636 2.704,0.966 1.458,0.329 2.458,0.618 3.000,0.864 0.789,0.363 1.371,0.824 1.747,1.382 0.376,0.557 0.564,1.200 0.564,1.928 -1e-5,0.721 -0.206,1.401 -0.619,2.039 -0.413,0.638 -1.006,1.134 -1.780,1.488 -0.773,0.354 -1.644,0.531 -2.612,0.531 -1.226,0 -2.254,-0.178 -3.084,-0.536 -0.829,-0.357 -1.479,-0.895 -1.951,-1.613 -0.471,-0.718 -0.719,-1.530 -0.744,-2.436 z"
         id="path3072" />
    </g>
  </g>
  <g
     transform="translate(0,-802.362)"
     id="layer1"
     style="display:inline">
    <g
       id="text4209"
       style=";;;;;text-align:start;line-height:125%;letter-spacing:1.679px;word-spacing:0px;writing-mode:lr-tb;text-anchor:start;fill:#000000;fill-opacity:1;stroke:none;;-inkscape-">
      <path
         d="m 149.742,821.233 -1.562,6.783 1.644,0.378 c 0.114,0.026 0.190,0.067 0.230,0.122 0.039,0.055 0.050,0.118 0.034,0.191 -0.015,0.068 -0.053,0.119 -0.113,0.154 -0.06,0.034 -0.147,0.038 -0.261,0.012 l -3.768,-0.867 c -0.114,-0.026 -0.190,-0.068 -0.229,-0.125 -0.039,-0.057 -0.050,-0.119 -0.034,-0.188 0.016,-0.072 0.054,-0.124 0.114,-0.157 0.059,-0.032 0.146,-0.035 0.260,-0.009 l 1.644,0.378 1.409,-6.120 -1.677,0.130 c -0.081,0.005 -0.139,0.004 -0.173,-0.004 -0.057,-0.013 -0.103,-0.049 -0.140,-0.107 -0.036,-0.058 -0.047,-0.120 -0.032,-0.184 0.013,-0.057 0.044,-0.106 0.093,-0.146 0.037,-0.023 0.107,-0.041 0.210,-0.053 z"
         id="path3075"
         />
      <path
         d="m 157.207,823.867 -0.742,2.290 c 0.312,-0.026 0.604,-0.027 0.875,-0.003 0.271,0.024 0.520,0.073 0.747,0.146 0.587,0.190 1.011,0.555 1.273,1.096 0.262,0.540 0.284,1.147 0.066,1.819 -0.240,0.743 -0.658,1.272 -1.254,1.589 -0.595,0.316 -1.227,0.366 -1.896,0.149 -0.442,-0.143 -0.835,-0.379 -1.180,-0.709 -0.245,-0.231 -0.453,-0.487 -0.625,-0.769 -0.101,-0.168 -0.138,-0.293 -0.112,-0.375 0.021,-0.066 0.062,-0.116 0.121,-0.148 0.059,-0.032 0.119,-0.038 0.178,-0.019 0.063,0.020 0.119,0.075 0.168,0.165 0.391,0.705 0.917,1.165 1.579,1.380 0.546,0.177 1.058,0.136 1.536,-0.121 0.477,-0.257 0.817,-0.697 1.018,-1.317 0.170,-0.527 0.154,-1.002 -0.049,-1.423 -0.204,-0.421 -0.544,-0.709 -1.019,-0.863 -0.486,-0.157 -1.015,-0.187 -1.585,-0.088 -0.138,0.020 -0.231,0.023 -0.279,0.008 -0.066,-0.021 -0.113,-0.061 -0.139,-0.119 -0.026,-0.057 -0.026,-0.127 1e-4,-0.209 l 1.006,-3.104 3.266,1.058 c 0.111,0.036 0.184,0.084 0.218,0.144 0.033,0.060 0.039,0.125 0.016,0.196 -0.021,0.066 -0.063,0.114 -0.126,0.143 -0.062,0.029 -0.149,0.025 -0.261,-0.010 z"
         id="path3077"
         />
      <path
         d="m 175.477,834.669 c 0.304,0.392 0.479,0.800 0.523,1.224 0.044,0.424 -0.023,0.804 -0.203,1.142 -0.277,0.520 -0.732,0.867 -1.367,1.041 -0.634,0.173 -1.268,0.091 -1.903,-0.246 -0.372,-0.198 -0.716,-0.482 -1.032,-0.854 -0.315,-0.371 -0.508,-0.682 -0.579,-0.932 -0.022,-0.082 -0.017,-0.155 0.016,-0.217 0.029,-0.055 0.074,-0.092 0.136,-0.113 0.061,-0.020 0.120,-0.015 0.175,0.013 0.055,0.029 0.103,0.088 0.144,0.176 0.323,0.680 0.783,1.180 1.380,1.497 0.503,0.267 1.009,0.334 1.516,0.199 0.507,-0.134 0.864,-0.395 1.069,-0.781 0.137,-0.258 0.188,-0.556 0.153,-0.893 -0.035,-0.337 -0.171,-0.660 -0.409,-0.971 -0.237,-0.310 -0.516,-0.550 -0.837,-0.721 -0.103,-0.055 -0.167,-0.114 -0.190,-0.177 -0.023,-0.063 -0.018,-0.128 0.016,-0.193 0.033,-0.062 0.082,-0.102 0.147,-0.120 0.065,-0.018 0.140,-0.005 0.227,0.041 l 0.369,0.203 c 0.389,0.207 0.774,0.259 1.154,0.156 0.380,-0.103 0.653,-0.311 0.820,-0.625 0.172,-0.324 0.191,-0.681 0.058,-1.070 -0.133,-0.389 -0.413,-0.698 -0.841,-0.925 -0.300,-0.159 -0.603,-0.254 -0.910,-0.285 -0.306,-0.030 -0.583,0.004 -0.830,0.102 -0.091,0.039 -0.156,0.059 -0.194,0.059 -0.037,-7e-5 -0.075,-0.010 -0.113,-0.030 -0.058,-0.031 -0.098,-0.077 -0.118,-0.139 -0.020,-0.061 -0.015,-0.120 0.013,-0.175 0.073,-0.137 0.316,-0.232 0.728,-0.283 0.573,-0.071 1.125,0.034 1.656,0.317 0.548,0.291 0.910,0.695 1.087,1.212 0.176,0.516 0.143,1.002 -0.098,1.457 -0.154,0.289 -0.384,0.518 -0.691,0.687 -0.306,0.168 -0.664,0.243 -1.075,0.224 z"
         id="path3079"
         />
      <path
         d="m 184.576,839.877 -0.664,1.021 c -0.577,0.887 -1.245,1.452 -2.004,1.694 -0.594,0.190 -1.144,0.122 -1.648,-0.205 -0.242,-0.157 -0.439,-0.354 -0.590,-0.590 -0.151,-0.236 -0.246,-0.489 -0.283,-0.761 -0.024,-0.169 -0.015,-0.411 0.026,-0.723 0.042,-0.312 0.104,-0.584 0.185,-0.816 0.107,-0.330 0.284,-0.684 0.529,-1.060 l 0.664,-1.021 c 0.579,-0.890 1.248,-1.457 2.007,-1.699 0.594,-0.190 1.144,-0.122 1.648,0.205 0.245,0.159 0.443,0.357 0.593,0.592 0.149,0.235 0.243,0.488 0.281,0.759 0.025,0.175 0.016,0.418 -0.027,0.730 -0.044,0.311 -0.104,0.582 -0.179,0.812 -0.111,0.328 -0.290,0.682 -0.537,1.062 z m -0.447,-0.214 c 0.253,-0.389 0.434,-0.787 0.543,-1.194 0.108,-0.406 0.159,-0.755 0.151,-1.044 -0.007,-0.167 -0.049,-0.335 -0.127,-0.502 -0.112,-0.236 -0.284,-0.429 -0.516,-0.580 -0.461,-0.300 -0.976,-0.300 -1.545,10e-4 -0.568,0.301 -1.057,0.765 -1.466,1.394 l -0.591,0.908 c -0.253,0.389 -0.435,0.788 -0.544,1.197 -0.109,0.408 -0.159,0.758 -0.148,1.049 0.006,0.162 0.048,0.327 0.125,0.494 0.109,0.239 0.282,0.435 0.518,0.589 0.458,0.298 0.972,0.296 1.542,-0.007 0.569,-0.302 1.059,-0.768 1.468,-1.396 z"
         id="path3081"
         />
      <path
         d="m 196.377,852.292 -2.383,-2.229 0.388,-0.415 5.228,-1.584 0.748,0.700 -3.281,3.509 0.299,0.280 c 0.088,0.082 0.135,0.157 0.142,0.225 0.006,0.067 -0.015,0.128 -0.066,0.182 -0.048,0.051 -0.106,0.076 -0.175,0.076 -0.069,-4.5e-4 -0.147,-0.042 -0.236,-0.124 l -0.299,-0.280 -1.068,1.142 0.299,0.280 c 0.088,0.082 0.135,0.157 0.142,0.225 0.006,0.067 -0.015,0.128 -0.066,0.182 -0.048,0.051 -0.106,0.076 -0.175,0.076 -0.069,-4.5e-4 -0.147,-0.042 -0.236,-0.124 l -1.335,-1.248 c -0.088,-0.082 -0.135,-0.158 -0.140,-0.227 -0.005,-0.068 0.016,-0.129 0.064,-0.180 0.050,-0.054 0.109,-0.080 0.177,-0.078 0.067,0.002 0.145,0.044 0.234,0.126 l 0.671,0.628 z m 0.336,-0.359 2.941,-3.145 -0.188,-0.176 -4.760,1.444 z"
         id="path3083"
         />
      <path
         d="m 204.707,853.916 -1.791,1.609 c 0.283,0.134 0.536,0.279 0.758,0.437 0.222,0.157 0.413,0.324 0.572,0.501 0.412,0.459 0.596,0.988 0.551,1.587 -0.044,0.599 -0.330,1.135 -0.856,1.607 -0.581,0.521 -1.208,0.770 -1.882,0.745 -0.673,-0.025 -1.245,-0.299 -1.715,-0.822 -0.310,-0.345 -0.532,-0.747 -0.665,-1.205 -0.096,-0.323 -0.147,-0.649 -0.154,-0.979 -0.003,-0.196 0.027,-0.323 0.091,-0.380 0.052,-0.047 0.112,-0.069 0.179,-0.067 0.067,0.002 0.122,0.026 0.164,0.073 0.044,0.049 0.065,0.125 0.062,0.227 -0.015,0.806 0.208,1.468 0.673,1.986 0.383,0.427 0.846,0.649 1.389,0.665 0.542,0.016 1.056,-0.192 1.542,-0.628 0.412,-0.370 0.636,-0.789 0.671,-1.256 0.034,-0.466 -0.114,-0.886 -0.448,-1.258 -0.341,-0.380 -0.784,-0.671 -1.326,-0.872 -0.130,-0.051 -0.212,-0.095 -0.245,-0.133 -0.047,-0.052 -0.067,-0.110 -0.061,-0.173 0.006,-0.063 0.041,-0.123 0.105,-0.181 l 2.428,-2.180 2.294,2.554 c 0.078,0.087 0.116,0.165 0.116,0.234 -9.6e-4,0.069 -0.029,0.128 -0.084,0.178 -0.052,0.047 -0.112,0.067 -0.181,0.060 -0.068,-0.006 -0.142,-0.053 -0.220,-0.140 z"
         id="path3085"
         />
      <path
         d="m 213.029,870.784 c 0.542,0.020 0.990,0.111 1.342,0.270 0.352,0.159 0.633,0.407 0.842,0.741 0.276,0.444 0.338,0.953 0.183,1.529 -0.154,0.575 -0.503,1.032 -1.047,1.371 -0.497,0.310 -1.050,0.436 -1.659,0.378 -0.609,-0.057 -1.086,-0.363 -1.431,-0.916 -0.225,-0.361 -0.324,-0.767 -0.297,-1.219 0.026,-0.451 0.214,-0.910 0.563,-1.377 0.434,-0.579 1.000,-1.086 1.696,-1.520 0.523,-0.326 1.076,-0.526 1.657,-0.598 0.447,-0.057 0.885,-0.036 1.314,0.064 0.428,0.100 0.837,0.275 1.224,0.524 0.387,0.248 0.709,0.578 0.965,0.989 0.173,0.278 0.261,0.545 0.265,0.801 -1.2e-4,0.110 -0.041,0.191 -0.124,0.243 -0.059,0.037 -0.119,0.049 -0.180,0.036 -0.060,-0.012 -0.108,-0.047 -0.144,-0.103 -0.026,-0.043 -0.042,-0.104 -0.046,-0.185 -0.018,-0.177 -0.090,-0.366 -0.216,-0.569 -0.403,-0.646 -1.048,-1.062 -1.935,-1.248 -0.886,-0.185 -1.713,-0.039 -2.478,0.437 -0.109,0.068 -0.273,0.184 -0.493,0.349 z m -0.632,0.525 c -0.524,0.502 -0.832,0.968 -0.922,1.400 -0.090,0.431 -0.020,0.831 0.209,1.198 0.231,0.371 0.574,0.598 1.028,0.680 0.454,0.082 0.913,-0.020 1.377,-0.310 0.434,-0.270 0.711,-0.627 0.830,-1.070 0.119,-0.442 0.075,-0.831 -0.133,-1.166 -0.200,-0.321 -0.531,-0.545 -0.992,-0.672 -0.306,-0.085 -0.772,-0.105 -1.398,-0.060 z"
         id="path3087"
         />
      <path
         d="m 220.370,881.474 -1.086,0.552 c -0.943,0.479 -1.804,0.635 -2.583,0.465 -0.610,-0.132 -1.052,-0.466 -1.324,-1.002 -0.131,-0.257 -0.203,-0.526 -0.216,-0.806 -0.013,-0.280 0.031,-0.547 0.134,-0.801 0.063,-0.159 0.191,-0.363 0.384,-0.613 0.193,-0.249 0.382,-0.454 0.568,-0.614 0.258,-0.232 0.588,-0.450 0.988,-0.653 l 1.086,-0.552 c 0.947,-0.481 1.809,-0.637 2.588,-0.468 0.610,0.132 1.052,0.466 1.324,1.002 0.132,0.261 0.205,0.531 0.217,0.809 0.012,0.278 -0.033,0.544 -0.136,0.798 -0.065,0.164 -0.194,0.370 -0.388,0.618 -0.193,0.247 -0.381,0.452 -0.561,0.614 -0.260,0.228 -0.592,0.446 -0.996,0.651 z m -0.280,-0.409 c 0.414,-0.210 0.770,-0.465 1.067,-0.763 0.297,-0.298 0.515,-0.574 0.653,-0.828 0.077,-0.149 0.124,-0.315 0.140,-0.498 0.020,-0.260 -0.031,-0.514 -0.157,-0.761 -0.249,-0.490 -0.696,-0.748 -1.339,-0.771 -0.643,-0.023 -1.298,0.134 -1.967,0.474 l -0.966,0.491 c -0.414,0.210 -0.771,0.465 -1.070,0.764 -0.299,0.299 -0.517,0.577 -0.653,0.835 -0.075,0.143 -0.121,0.307 -0.138,0.490 -0.024,0.262 0.027,0.518 0.154,0.769 0.247,0.487 0.694,0.742 1.339,0.765 0.644,0.022 1.301,-0.135 1.969,-0.475 z"
         id="path3089"
         />
      <path
         d="m 228.980,897.499 0.213,-0.064 -1.026,-3.374 -0.414,0.126 c -0.112,0.034 -0.199,0.037 -0.260,0.009 -0.061,-0.028 -0.103,-0.077 -0.124,-0.148 -0.020,-0.067 -0.013,-0.130 0.021,-0.190 0.034,-0.059 0.108,-0.106 0.220,-0.140 l 0.891,-0.271 1.314,4.322 -0.751,0.228 -6.630,-0.052 c -0.106,-3.4e-4 -0.181,-0.016 -0.225,-0.047 -0.044,-0.031 -0.074,-0.073 -0.090,-0.125 -0.020,-0.067 -0.015,-0.130 0.016,-0.188 0.031,-0.058 0.076,-0.096 0.136,-0.115 0.037,-0.011 0.093,-0.016 0.167,-0.014 z"
         id="path3091"
         />
      <path
         d="m 229.016,907.768 -1.192,0.251 c -1.035,0.218 -1.907,0.144 -2.615,-0.221 -0.555,-0.286 -0.894,-0.723 -1.018,-1.312 -0.059,-0.282 -0.059,-0.561 8.1e-4,-0.835 0.060,-0.274 0.172,-0.520 0.338,-0.738 0.102,-0.137 0.279,-0.301 0.531,-0.492 0.251,-0.190 0.487,-0.339 0.708,-0.445 0.310,-0.157 0.685,-0.281 1.124,-0.374 l 1.192,-0.251 c 1.039,-0.218 1.913,-0.145 2.621,0.220 0.555,0.286 0.894,0.723 1.018,1.312 0.060,0.286 0.060,0.566 -2e-4,0.838 -0.060,0.272 -0.173,0.517 -0.339,0.736 -0.105,0.142 -0.284,0.307 -0.536,0.496 -0.251,0.188 -0.485,0.337 -0.702,0.447 -0.311,0.153 -0.688,0.276 -1.131,0.369 z m -0.164,-0.468 c 0.454,-0.095 0.864,-0.248 1.229,-0.459 0.364,-0.210 0.646,-0.420 0.846,-0.630 0.113,-0.123 0.202,-0.272 0.265,-0.445 0.087,-0.246 0.103,-0.504 0.046,-0.776 -0.113,-0.538 -0.477,-0.903 -1.092,-1.093 -0.614,-0.189 -1.289,-0.207 -2.023,-0.053 l -1.060,0.223 c -0.454,0.095 -0.865,0.249 -1.232,0.459 -0.366,0.210 -0.649,0.423 -0.848,0.636 -0.110,0.119 -0.197,0.265 -0.261,0.438 -0.091,0.246 -0.108,0.507 -0.050,0.783 0.112,0.535 0.477,0.897 1.094,1.087 0.616,0.189 1.292,0.207 2.025,0.052 z"
         id="path3093"
         />
    </g>
    <g
       id="text4232"
       style=";;;;;text-align:start;line-height:125%;letter-spacing:-0.38px;word-spacing:0px;writing-mode:lr-tb;text-anchor:start;fill:#000000;fill-opacity:1;stroke:none;;-inkscape-">
      <path
         d="m 232.043,947.787 -6.841,-1.285 -0.311,1.658 c -0.021,0.115 -0.059,0.193 -0.112,0.235 -0.053,0.041 -0.116,0.055 -0.189,0.041 -0.069,-0.013 -0.122,-0.048 -0.158,-0.107 -0.036,-0.058 -0.044,-0.145 -0.022,-0.260 l 0.714,-3.800 c 0.021,-0.115 0.060,-0.193 0.115,-0.234 0.055,-0.041 0.117,-0.055 0.186,-0.042 0.072,0.013 0.126,0.049 0.161,0.107 0.034,0.058 0.041,0.144 0.019,0.260 l -0.311,1.658 6.173,1.159 -0.198,-1.670 c -0.009,-0.081 -0.01,-0.138 -0.003,-0.173 0.010,-0.057 0.044,-0.105 0.101,-0.144 0.057,-0.039 0.118,-0.052 0.183,-0.040 0.057,0.010 0.107,0.040 0.150,0.087 0.024,0.036 0.045,0.105 0.062,0.208 z"
         id="path3096"
         />
      <path
         d="m 226.867,956.079 -1.180,-0.304 c -1.025,-0.264 -1.773,-0.717 -2.245,-1.359 -0.370,-0.502 -0.480,-1.045 -0.330,-1.628 0.072,-0.279 0.195,-0.529 0.371,-0.748 0.175,-0.219 0.385,-0.389 0.631,-0.511 0.153,-0.077 0.384,-0.145 0.694,-0.205 0.309,-0.059 0.587,-0.087 0.832,-0.084 0.347,-0.003 0.739,0.051 1.174,0.163 l 1.180,0.304 c 1.028,0.265 1.779,0.718 2.251,1.360 0.370,0.502 0.480,1.045 0.330,1.628 -0.073,0.283 -0.197,0.534 -0.372,0.751 -0.174,0.217 -0.385,0.386 -0.630,0.509 -0.157,0.080 -0.391,0.149 -0.700,0.206 -0.309,0.057 -0.585,0.087 -0.827,0.089 -0.346,-6.5e-4 -0.739,-0.057 -1.178,-0.170 z m 0.060,-0.492 c 0.450,0.116 0.885,0.160 1.305,0.133 0.420,-0.026 0.766,-0.089 1.038,-0.189 0.156,-0.060 0.301,-0.154 0.435,-0.281 0.187,-0.181 0.316,-0.406 0.385,-0.675 0.137,-0.533 -0.027,-1.021 -0.493,-1.464 -0.466,-0.443 -1.063,-0.758 -1.789,-0.945 l -1.049,-0.270 c -0.450,-0.116 -0.886,-0.160 -1.308,-0.134 -0.422,0.026 -0.769,0.091 -1.042,0.194 -0.152,0.057 -0.294,0.149 -0.428,0.276 -0.191,0.180 -0.322,0.406 -0.392,0.679 -0.136,0.529 0.029,1.016 0.498,1.459 0.468,0.443 1.066,0.758 1.792,0.946 z"
         id="path3098"
         />
      <path
         d="m 228.297,960.226 -2.286,-0.756 c 0.024,0.312 0.023,0.604 -0.003,0.875 -0.025,0.271 -0.076,0.519 -0.151,0.746 -0.193,0.585 -0.561,1.008 -1.104,1.267 -0.542,0.258 -1.149,0.277 -1.820,0.055 -0.741,-0.245 -1.268,-0.666 -1.581,-1.263 -0.312,-0.597 -0.358,-1.229 -0.137,-1.897 0.145,-0.441 0.384,-0.833 0.716,-1.176 0.232,-0.243 0.490,-0.450 0.773,-0.620 0.169,-0.100 0.294,-0.137 0.375,-0.110 0.066,0.022 0.115,0.063 0.147,0.122 0.031,0.059 0.037,0.119 0.018,0.178 -0.020,0.063 -0.076,0.118 -0.166,0.167 -0.708,0.387 -1.171,0.910 -1.389,1.570 -0.180,0.545 -0.142,1.057 0.111,1.536 0.254,0.479 0.692,0.821 1.311,1.026 0.526,0.174 1.001,0.160 1.423,-0.041 0.422,-0.201 0.712,-0.539 0.869,-1.014 0.160,-0.485 0.193,-1.013 0.098,-1.584 -0.020,-0.138 -0.022,-0.231 -0.006,-0.279 0.022,-0.066 0.062,-0.113 0.120,-0.139 0.058,-0.026 0.127,-0.025 0.209,10e-4 l 3.098,1.024 -1.078,3.259 c -0.036,0.111 -0.085,0.183 -0.145,0.217 -0.060,0.033 -0.125,0.038 -0.196,0.015 -0.066,-0.022 -0.114,-0.064 -0.142,-0.127 -0.028,-0.062 -0.024,-0.150 0.012,-0.261 z"
         id="path3100"
         />
      <path
         d="m 222.812,975.465 -6.254,-3.056 -0.740,1.516 c -0.051,0.105 -0.108,0.170 -0.171,0.196 -0.062,0.025 -0.127,0.022 -0.194,-0.01 -0.063,-0.030 -0.104,-0.079 -0.124,-0.145 -0.019,-0.066 -0.004,-0.151 0.047,-0.257 l 1.697,-3.474 c 0.051,-0.105 0.109,-0.170 0.173,-0.195 0.064,-0.025 0.128,-0.022 0.191,0.009 0.066,0.032 0.109,0.081 0.127,0.146 0.018,0.065 10e-4,0.150 -0.050,0.255 l -0.740,1.516 5.643,2.757 0.252,-1.663 c 0.013,-0.080 0.027,-0.136 0.043,-0.168 0.025,-0.052 0.071,-0.090 0.136,-0.112 0.065,-0.022 0.127,-0.019 0.187,0.010 0.052,0.025 0.093,0.067 0.121,0.124 0.014,0.041 0.015,0.114 0.005,0.217 z"
         id="path3102"
         />
      <path
         d="m 214.508,976.401 -1.884,3.275 0.167,0.096 c 0.101,0.058 0.162,0.120 0.183,0.186 0.020,0.065 0.012,0.131 -0.024,0.195 -0.035,0.060 -0.086,0.099 -0.153,0.114 -0.067,0.015 -0.151,-0.006 -0.253,-0.064 l -0.594,-0.341 2.373,-4.123 0.629,0.362 c 0.279,1.314 0.587,2.613 0.921,3.896 0.155,0.598 0.280,1.020 0.374,1.263 0.094,0.243 0.193,0.429 0.296,0.559 0.103,0.129 0.223,0.233 0.358,0.311 0.365,0.210 0.773,0.249 1.224,0.116 0.450,-0.132 0.795,-0.407 1.035,-0.823 0.214,-0.372 0.297,-0.763 0.249,-1.174 -0.047,-0.410 -0.204,-0.748 -0.470,-1.014 -0.069,-0.067 -0.107,-0.122 -0.113,-0.166 -0.010,-0.060 -1.4e-4,-0.117 0.031,-0.171 0.033,-0.057 0.080,-0.094 0.141,-0.111 0.061,-0.016 0.119,-0.009 0.173,0.022 0.162,0.093 0.331,0.309 0.506,0.646 0.175,0.337 0.252,0.708 0.231,1.113 -0.021,0.404 -0.126,0.771 -0.315,1.099 -0.305,0.531 -0.753,0.882 -1.342,1.052 -0.589,0.170 -1.117,0.120 -1.584,-0.147 -0.196,-0.113 -0.358,-0.248 -0.485,-0.407 -0.127,-0.158 -0.243,-0.371 -0.349,-0.637 -0.106,-0.266 -0.240,-0.711 -0.403,-1.337 -0.411,-1.571 -0.709,-2.828 -0.891,-3.771 z"
         id="path3104"
         />
      <path
         d="m 211.733,988.038 -1.012,-0.677 c -0.879,-0.588 -1.436,-1.264 -1.668,-2.026 -0.183,-0.597 -0.107,-1.145 0.227,-1.645 0.160,-0.240 0.360,-0.434 0.598,-0.583 0.238,-0.148 0.493,-0.239 0.765,-0.274 0.170,-0.022 0.411,-0.010 0.723,0.036 0.311,0.046 0.583,0.111 0.813,0.195 0.329,0.112 0.680,0.293 1.053,0.542 l 1.012,0.677 c 0.883,0.590 1.440,1.267 1.673,2.029 0.183,0.597 0.107,1.145 -0.227,1.645 -0.162,0.243 -0.362,0.438 -0.599,0.585 -0.236,0.146 -0.491,0.237 -0.763,0.271 -0.175,0.023 -0.418,0.011 -0.729,-0.037 -0.310,-0.048 -0.581,-0.111 -0.810,-0.189 -0.326,-0.115 -0.678,-0.299 -1.055,-0.551 z m 0.220,-0.444 c 0.386,0.258 0.782,0.444 1.187,0.558 0.405,0.113 0.752,0.168 1.042,0.165 0.167,-0.005 0.335,-0.045 0.503,-0.121 0.237,-0.109 0.433,-0.278 0.587,-0.509 0.306,-0.457 0.312,-0.972 0.018,-1.545 -0.293,-0.572 -0.752,-1.067 -1.375,-1.484 l -0.900,-0.602 c -0.386,-0.258 -0.783,-0.445 -1.190,-0.560 -0.407,-0.115 -0.756,-0.168 -1.047,-0.161 -0.162,0.004 -0.327,0.043 -0.495,0.119 -0.240,0.106 -0.439,0.277 -0.595,0.510 -0.304,0.454 -0.308,0.968 -0.013,1.542 0.295,0.573 0.754,1.068 1.377,1.486 z"
         id="path3106"
         />
      <path
         d="m 206.531,999.684 -5.213,-4.611 -1.118,1.263 c -0.077,0.087 -0.150,0.135 -0.217,0.144 -0.067,0.008 -0.128,-0.012 -0.184,-0.061 -0.052,-0.046 -0.079,-0.104 -0.081,-0.173 -0.001,-0.069 0.036,-0.147 0.114,-0.235 l 2.562,-2.896 c 0.077,-0.087 0.150,-0.135 0.219,-0.142 0.068,-0.007 0.129,0.012 0.182,0.059 0.055,0.049 0.083,0.107 0.083,0.175 0,0.067 -0.038,0.145 -0.116,0.233 l -1.118,1.263 4.704,4.161 0.686,-1.536 c 0.034,-0.074 0.063,-0.124 0.086,-0.150 0.038,-0.043 0.092,-0.067 0.161,-0.072 0.068,-0.004 0.128,0.015 0.177,0.059 0.043,0.038 0.071,0.089 0.084,0.152 0.003,0.044 -0.015,0.114 -0.053,0.210 z"
         id="path3108"
         />
      <path
         d="m 198.521,1003.070 c -0.465,0.174 -0.906,0.219 -1.324,0.135 -0.417,-0.084 -0.761,-0.262 -1.030,-0.534 -0.414,-0.419 -0.610,-0.957 -0.587,-1.615 0.023,-0.657 0.290,-1.238 0.801,-1.743 0.300,-0.296 0.674,-0.540 1.122,-0.730 0.448,-0.190 0.802,-0.282 1.062,-0.275 0.085,0.003 0.153,0.029 0.202,0.079 0.043,0.044 0.066,0.099 0.067,0.164 0.001,0.064 -0.020,0.119 -0.065,0.163 -0.044,0.043 -0.115,0.072 -0.211,0.085 -0.746,0.106 -1.359,0.396 -1.840,0.871 -0.405,0.400 -0.619,0.863 -0.641,1.388 -0.022,0.524 0.120,0.942 0.427,1.253 0.205,0.208 0.475,0.345 0.807,0.412 0.332,0.067 0.682,0.033 1.048,-0.101 0.366,-0.134 0.679,-0.329 0.937,-0.585 0.083,-0.082 0.158,-0.125 0.226,-0.129 0.067,0 0.127,0.021 0.179,0.074 0.049,0.05 0.073,0.108 0.071,0.176 -0.002,0.068 -0.037,0.135 -0.106,0.204 l -0.304,0.292 c -0.313,0.310 -0.478,0.662 -0.492,1.055 -0.014,0.393 0.102,0.716 0.352,0.969 0.258,0.261 0.593,0.386 1.004,0.374 0.411,-0.011 0.789,-0.187 1.134,-0.527 0.241,-0.238 0.422,-0.500 0.543,-0.784 0.120,-0.283 0.170,-0.558 0.149,-0.823 -0.010,-0.1 -0.010,-0.167 10e-4,-0.203 0.011,-0.036 0.032,-0.069 0.062,-0.099 0.047,-0.047 0.103,-0.071 0.168,-0.072 0.064,0 0.119,0.021 0.163,0.065 0.109,0.111 0.127,0.370 0.053,0.779 -0.102,0.568 -0.368,1.064 -0.795,1.487 -0.441,0.436 -0.935,0.662 -1.481,0.677 -0.545,0.015 -0.999,-0.161 -1.362,-0.527 -0.230,-0.233 -0.380,-0.521 -0.450,-0.864 -0.069,-0.343 -0.034,-0.707 0.105,-1.093 z"
         id="path3110"
         />
      <path
         d="m 196.932,1008.438 -1.574,-1.821 c -0.139,0.280 -0.289,0.530 -0.451,0.750 -0.161,0.219 -0.332,0.407 -0.512,0.562 -0.466,0.403 -0.999,0.577 -1.597,0.521 -0.598,-0.056 -1.128,-0.351 -1.590,-0.886 -0.510,-0.591 -0.747,-1.223 -0.709,-1.896 0.037,-0.673 0.322,-1.239 0.854,-1.699 0.351,-0.304 0.757,-0.518 1.218,-0.642 0.325,-0.09 0.652,-0.135 0.981,-0.136 0.196,5e-4 0.322,0.033 0.379,0.098 0.046,0.053 0.067,0.113 0.063,0.181 -0.004,0.068 -0.028,0.121 -0.076,0.162 -0.050,0.043 -0.126,0.063 -0.228,0.058 -0.806,-0.031 -1.472,0.180 -1.998,0.635 -0.434,0.375 -0.665,0.834 -0.692,1.376 -0.027,0.542 0.172,1.060 0.599,1.553 0.362,0.419 0.777,0.651 1.243,0.694 0.466,0.044 0.888,-0.098 1.266,-0.425 0.387,-0.334 0.686,-0.771 0.897,-1.309 0.053,-0.129 0.099,-0.210 0.138,-0.243 0.053,-0.046 0.111,-0.065 0.174,-0.058 0.063,0.01 0.122,0.043 0.179,0.108 l 2.134,2.469 -2.597,2.245 c -0.088,0.077 -0.167,0.113 -0.236,0.111 -0.069,0 -0.127,-0.031 -0.176,-0.088 -0.046,-0.053 -0.065,-0.114 -0.057,-0.182 0.008,-0.069 0.056,-0.141 0.144,-0.218 z"
         id="path3112"
         />
      <path
         d="m 184.424,1018.709 -3.810,-5.825 -1.412,0.923 c -0.098,0.064 -0.180,0.091 -0.247,0.082 -0.067,-0.01 -0.120,-0.046 -0.161,-0.107 -0.038,-0.059 -0.049,-0.121 -0.032,-0.188 0.016,-0.067 0.074,-0.132 0.172,-0.196 l 3.236,-2.117 c 0.098,-0.064 0.181,-0.091 0.249,-0.079 0.068,0.011 0.121,0.047 0.159,0.105 0.040,0.062 0.052,0.125 0.034,0.191 -0.017,0.065 -0.075,0.130 -0.173,0.194 l -1.412,0.923 3.438,5.256 1.067,-1.300 c 0.052,-0.062 0.093,-0.103 0.122,-0.122 0.049,-0.032 0.107,-0.041 0.174,-0.027 0.067,0.014 0.119,0.049 0.155,0.104 0.032,0.049 0.045,0.105 0.040,0.169 -0.009,0.043 -0.044,0.106 -0.107,0.189 z"
         id="path3114"
         />
      <path
         d="m 179.267,1021.186 -1.180,-2.098 c -0.192,0.247 -0.389,0.462 -0.591,0.645 -0.201,0.183 -0.406,0.332 -0.614,0.449 -0.537,0.302 -1.094,0.367 -1.669,0.193 -0.575,-0.173 -1.036,-0.568 -1.382,-1.185 -0.383,-0.680 -0.489,-1.347 -0.318,-1.999 0.170,-0.652 0.562,-1.150 1.175,-1.495 0.405,-0.228 0.845,-0.357 1.321,-0.387 0.336,-0.023 0.666,0 0.989,0.062 0.192,0.04 0.309,0.097 0.352,0.171 0.034,0.061 0.043,0.124 0.026,0.190 -0.016,0.066 -0.052,0.113 -0.107,0.144 -0.057,0.033 -0.136,0.036 -0.235,0.012 -0.784,-0.190 -1.479,-0.115 -2.085,0.225 -0.500,0.281 -0.817,0.685 -0.952,1.211 -0.134,0.526 -0.041,1.073 0.278,1.641 0.272,0.483 0.632,0.792 1.080,0.928 0.448,0.135 0.890,0.081 1.326,-0.164 0.445,-0.251 0.825,-0.619 1.139,-1.105 0.078,-0.115 0.139,-0.186 0.183,-0.211 0.061,-0.035 0.122,-0.042 0.182,-0.022 0.060,0.02 0.111,0.067 0.153,0.142 l 1.600,2.844 -2.992,1.683 c -0.102,0.057 -0.186,0.078 -0.254,0.062 -0.067,-0.016 -0.119,-0.056 -0.155,-0.120 -0.034,-0.061 -0.041,-0.124 -0.019,-0.190 0.021,-0.066 0.083,-0.127 0.185,-0.184 z"
         id="path3116"
         />
      <path
         d="m 168.484,1023.856 -0.525,-1.099 c -0.456,-0.955 -0.590,-1.819 -0.401,-2.594 0.147,-0.607 0.492,-1.040 1.035,-1.299 0.260,-0.124 0.531,-0.19 0.812,-0.196 0.280,-0.01 0.546,0.045 0.797,0.154 0.157,0.067 0.358,0.200 0.603,0.400 0.244,0.199 0.444,0.393 0.600,0.583 0.225,0.264 0.435,0.599 0.629,1.004 l 0.525,1.099 c 0.457,0.958 0.592,1.825 0.403,2.599 -0.147,0.607 -0.492,1.040 -1.035,1.299 -0.264,0.126 -0.535,0.192 -0.814,0.197 -0.278,0.01 -0.543,-0.046 -0.795,-0.155 -0.162,-0.069 -0.365,-0.204 -0.608,-0.404 -0.242,-0.2 -0.442,-0.392 -0.600,-0.576 -0.222,-0.266 -0.431,-0.603 -0.626,-1.012 z m 0.416,-0.270 c 0.200,0.419 0.445,0.781 0.736,1.086 0.290,0.304 0.561,0.529 0.812,0.673 0.147,0.081 0.312,0.132 0.495,0.153 0.259,0.027 0.514,-0.019 0.765,-0.138 0.496,-0.237 0.765,-0.677 0.804,-1.319 0.039,-0.642 -0.102,-1.301 -0.425,-1.978 l -0.467,-0.978 c -0.200,-0.419 -0.446,-0.782 -0.737,-1.089 -0.291,-0.306 -0.564,-0.531 -0.818,-0.673 -0.141,-0.079 -0.304,-0.129 -0.487,-0.150 -0.261,-0.031 -0.519,0.014 -0.772,0.135 -0.493,0.235 -0.759,0.675 -0.798,1.319 -0.038,0.644 0.103,1.304 0.426,1.981 z"
         id="path3118"
         />
      <path
         d="m 158.071,1031.220 -2.131,-6.626 -1.606,0.516 c -0.111,0.036 -0.198,0.04 -0.260,0.013 -0.062,-0.027 -0.104,-0.076 -0.127,-0.146 -0.021,-0.067 -0.015,-0.130 0.018,-0.190 0.034,-0.06 0.106,-0.108 0.218,-0.144 l 3.681,-1.184 c 0.111,-0.036 0.198,-0.039 0.261,-0.01 0.062,0.029 0.104,0.077 0.126,0.144 0.022,0.071 0.016,0.135 -0.017,0.193 -0.034,0.058 -0.107,0.105 -0.219,0.141 l -1.606,0.516 1.923,5.979 1.374,-0.971 c 0.067,-0.046 0.117,-0.075 0.150,-0.085 0.055,-0.018 0.114,-0.011 0.175,0.02 0.061,0.032 0.102,0.079 0.122,0.142 0.017,0.056 0.016,0.113 -0.006,0.174 -0.020,0.039 -0.071,0.091 -0.153,0.154 z"
         id="path3120"
         />
      <path
         d="m 151.642,1028.582 c -0.187,0.509 -0.411,0.907 -0.672,1.193 -0.260,0.286 -0.582,0.477 -0.965,0.572 -0.507,0.126 -1.011,0.027 -1.510,-0.297 -0.499,-0.324 -0.826,-0.797 -0.980,-1.419 -0.141,-0.568 -0.090,-1.133 0.151,-1.695 0.242,-0.561 0.680,-0.921 1.313,-1.078 0.413,-0.102 0.830,-0.072 1.251,0.093 0.421,0.164 0.799,0.485 1.135,0.961 0.417,0.592 0.724,1.287 0.922,2.083 0.148,0.598 0.168,1.185 0.057,1.760 -0.083,0.443 -0.238,0.853 -0.466,1.230 -0.228,0.376 -0.520,0.711 -0.876,1.002 -0.356,0.291 -0.769,0.496 -1.239,0.613 -0.318,0.079 -0.599,0.081 -0.844,0 -0.105,-0.034 -0.169,-0.099 -0.193,-0.193 -0.017,-0.068 -0.01,-0.129 0.020,-0.183 0.030,-0.054 0.078,-0.089 0.142,-0.105 0.049,-0.012 0.112,-0.01 0.190,0.013 0.174,0.037 0.377,0.027 0.608,-0.031 0.739,-0.183 1.334,-0.668 1.784,-1.455 0.450,-0.786 0.566,-1.617 0.349,-2.493 -0.031,-0.125 -0.091,-0.317 -0.179,-0.577 z m -0.304,-0.763 c -0.315,-0.654 -0.664,-1.090 -1.047,-1.309 -0.382,-0.218 -0.784,-0.276 -1.204,-0.171 -0.424,0.105 -0.746,0.361 -0.965,0.768 -0.218,0.406 -0.262,0.875 -0.130,1.406 0.123,0.496 0.377,0.870 0.761,1.120 0.384,0.250 0.767,0.328 1.150,0.233 0.367,-0.091 0.683,-0.337 0.945,-0.736 0.175,-0.265 0.338,-0.702 0.489,-1.311 z"
         id="path3122"
         />
      <path
         d="m 145.339,1033.849 -0.422,-2.370 c -0.263,0.169 -0.520,0.307 -0.771,0.414 -0.250,0.106 -0.493,0.180 -0.728,0.221 -0.607,0.108 -1.154,-0.015 -1.639,-0.368 -0.485,-0.353 -0.790,-0.879 -0.914,-1.575 -0.136,-0.769 -0.017,-1.433 0.359,-1.992 0.376,-0.559 0.911,-0.900 1.603,-1.023 0.457,-0.082 0.916,-0.058 1.375,0.071 0.325,0.089 0.629,0.217 0.913,0.384 0.168,0.100 0.260,0.193 0.275,0.278 0.012,0.069 -3.1e-4,0.132 -0.037,0.188 -0.037,0.056 -0.087,0.09 -0.148,0.100 -0.065,0.012 -0.140,-0.011 -0.226,-0.067 -0.677,-0.438 -1.358,-0.597 -2.042,-0.475 -0.565,0.100 -0.998,0.377 -1.298,0.829 -0.300,0.452 -0.393,0.999 -0.279,1.641 0.097,0.546 0.335,0.957 0.713,1.233 0.378,0.275 0.813,0.369 1.306,0.282 0.503,-0.09 0.983,-0.312 1.440,-0.667 0.112,-0.083 0.193,-0.129 0.243,-0.138 0.069,-0.012 0.129,8e-4 0.179,0.039 0.050,0.039 0.083,0.100 0.098,0.184 l 0.571,3.213 -3.380,0.601 c -0.115,0.021 -0.202,0.012 -0.260,-0.025 -0.058,-0.037 -0.093,-0.092 -0.106,-0.165 -0.012,-0.069 0.002,-0.131 0.044,-0.186 0.041,-0.055 0.120,-0.093 0.235,-0.113 z"
         id="path3124"
         />
    </g>
    <g
       id="text4234"
       style=";;;;;text-align:start;line-height:125%;letter-spacing:-0.449px;word-spacing:0px;writing-mode:lr-tb;text-anchor:start;fill:#000000;fill-opacity:1;stroke:none;;-inkscape-">
      <path
         d="m 103.391,1034.173 1.361,-6.826 -1.654,-0.33 c -0.114,-0.023 -0.192,-0.061 -0.233,-0.115 -0.041,-0.054 -0.054,-0.117 -0.039,-0.190 0.013,-0.069 0.050,-0.121 0.109,-0.157 0.059,-0.036 0.145,-0.043 0.260,-0.02 l 3.792,0.756 c 0.114,0.023 0.192,0.062 0.233,0.118 0.040,0.056 0.054,0.118 0.040,0.187 -0.014,0.073 -0.051,0.126 -0.109,0.160 -0.058,0.034 -0.145,0.04 -0.260,0.017 l -1.654,-0.33 -1.228,6.16 1.673,-0.180 c 0.081,-0.01 0.139,-0.01 0.173,0 0.057,0.011 0.105,0.046 0.143,0.103 0.038,0.057 0.051,0.118 0.038,0.183 -0.011,0.057 -0.041,0.107 -0.089,0.149 -0.036,0.024 -0.106,0.044 -0.209,0.06 z"
         id="path3127"
         />
      <path
         d="m 95.491,1028.869 c 0.361,-0.367 0.740,-0.615 1.137,-0.743 0.396,-0.128 0.771,-0.144 1.126,-0.049 0.328,0.088 0.620,0.268 0.877,0.539 0.256,0.271 0.426,0.613 0.509,1.026 0.083,0.412 0.071,0.819 -0.036,1.218 -0.156,0.580 -0.478,1.061 -0.967,1.441 -0.488,0.380 -1.034,0.489 -1.638,0.327 -0.430,-0.115 -0.786,-0.355 -1.068,-0.718 -0.282,-0.363 -0.453,-0.825 -0.512,-1.387 -0.077,-0.720 2.18e-4,-1.512 0.232,-2.376 0.180,-0.671 0.438,-1.200 0.772,-1.588 0.224,-0.263 0.513,-0.499 0.866,-0.707 0.353,-0.208 0.727,-0.354 1.122,-0.438 0.539,-0.109 1.065,-0.096 1.578,0.042 0.339,0.091 0.599,0.23 0.780,0.416 0.081,0.087 0.110,0.175 0.086,0.265 -0.017,0.064 -0.054,0.111 -0.111,0.143 -0.056,0.031 -0.117,0.038 -0.181,0.021 -0.045,-0.012 -0.105,-0.051 -0.181,-0.115 -0.127,-0.111 -0.287,-0.192 -0.480,-0.244 -0.803,-0.216 -1.571,-0.112 -2.304,0.311 -0.732,0.423 -1.216,1.071 -1.450,1.942 -0.042,0.158 -0.094,0.383 -0.156,0.673 z m -0.122,0.816 c -0.006,0.819 0.101,1.407 0.323,1.764 0.221,0.356 0.530,0.588 0.926,0.695 0.403,0.108 0.803,0.034 1.200,-0.223 0.396,-0.257 0.666,-0.652 0.809,-1.183 0.138,-0.516 0.101,-0.985 -0.113,-1.404 -0.214,-0.419 -0.514,-0.681 -0.899,-0.784 -0.222,-0.06 -0.458,-0.059 -0.707,0 -0.249,0.062 -0.502,0.188 -0.759,0.378 -0.168,0.128 -0.427,0.380 -0.779,0.755 z"
         id="path3129"
         />
      <path
         d="m 91.137,1030.336 0.778,-2.279 c -0.312,0.021 -0.604,0.017 -0.875,-0.011 -0.270,-0.029 -0.519,-0.081 -0.744,-0.158 -0.584,-0.199 -1.002,-0.571 -1.256,-1.116 -0.253,-0.544 -0.266,-1.151 -0.037,-1.820 0.252,-0.739 0.678,-1.262 1.278,-1.569 0.600,-0.306 1.232,-0.346 1.898,-0.119 0.439,0.150 0.829,0.392 1.169,0.727 0.241,0.235 0.446,0.494 0.613,0.779 0.098,0.17 0.134,0.295 0.106,0.376 -0.022,0.067 -0.064,0.115 -0.124,0.146 -0.060,0.031 -0.119,0.036 -0.178,0.016 -0.062,-0.021 -0.118,-0.077 -0.165,-0.167 -0.380,-0.711 -0.899,-1.180 -1.557,-1.404 -0.543,-0.185 -1.055,-0.153 -1.537,0.097 -0.481,0.250 -0.828,0.684 -1.038,1.301 -0.179,0.524 -0.170,0.999 0.027,1.424 0.197,0.424 0.533,0.717 1.006,0.879 0.484,0.165 1.012,0.203 1.583,0.113 0.138,-0.019 0.231,-0.02 0.279,0 0.066,0.023 0.112,0.063 0.138,0.121 0.025,0.058 0.024,0.128 -0.003,0.209 l -1.054,3.088 -3.249,-1.109 c -0.110,-0.038 -0.182,-0.087 -0.215,-0.148 -0.032,-0.061 -0.037,-0.126 -0.013,-0.196 0.022,-0.067 0.065,-0.113 0.128,-0.141 0.063,-0.028 0.150,-0.023 0.261,0.015 z"
         id="path3131"
         />
      <path
         d="m 81.307,1019.597 -3.381,-1.687 -0.086,0.173 c -0.052,0.104 -0.110,0.169 -0.175,0.194 -0.064,0.025 -0.130,0.02 -0.196,-0.013 -0.062,-0.031 -0.104,-0.08 -0.123,-0.146 -0.019,-0.066 -0.002,-0.152 0.049,-0.256 l 0.306,-0.613 4.257,2.124 -0.324,0.650 c -1.295,0.357 -2.574,0.741 -3.835,1.151 -0.588,0.190 -1.001,0.340 -1.239,0.449 -0.237,0.108 -0.417,0.218 -0.540,0.329 -0.123,0.111 -0.219,0.236 -0.289,0.376 -0.188,0.377 -0.202,0.787 -0.043,1.229 0.159,0.441 0.453,0.77 0.883,0.984 0.384,0.191 0.780,0.251 1.187,0.179 0.406,-0.072 0.735,-0.248 0.984,-0.530 0.062,-0.074 0.116,-0.114 0.159,-0.123 0.059,-0.014 0.117,-0.01 0.172,0.021 0.059,0.03 0.099,0.075 0.119,0.134 0.020,0.06 0.016,0.118 -0.011,0.174 -0.083,0.167 -0.288,0.349 -0.615,0.544 -0.326,0.195 -0.692,0.294 -1.097,0.297 -0.405,0 -0.777,-0.08 -1.116,-0.249 -0.548,-0.273 -0.925,-0.699 -1.130,-1.277 -0.204,-0.578 -0.186,-1.108 0.053,-1.590 0.101,-0.202 0.227,-0.372 0.378,-0.508 0.151,-0.136 0.356,-0.265 0.615,-0.387 0.259,-0.121 0.696,-0.282 1.311,-0.481 1.543,-0.504 2.781,-0.875 3.712,-1.114 z"
         id="path3133"
         />
      <path
         d="m 69.725,1021.308 3.517,-6.006 -1.456,-0.852 c -0.101,-0.059 -0.162,-0.121 -0.183,-0.185 -0.021,-0.064 -0.012,-0.128 0.024,-0.192 0.035,-0.061 0.087,-0.098 0.154,-0.113 0.067,-0.015 0.151,0.01 0.252,0.067 l 3.337,1.954 c 0.101,0.059 0.161,0.121 0.181,0.188 0.020,0.066 0.012,0.129 -0.023,0.190 -0.037,0.064 -0.089,0.102 -0.156,0.115 -0.066,0.013 -0.150,-0.01 -0.251,-0.069 l -1.456,-0.852 -3.174,5.420 1.640,0.376 c 0.079,0.019 0.134,0.038 0.164,0.055 0.050,0.03 0.084,0.078 0.102,0.144 0.017,0.067 0.009,0.128 -0.024,0.186 -0.029,0.051 -0.074,0.088 -0.133,0.112 -0.042,0.011 -0.115,0.01 -0.217,-0.012 z"
         id="path3135"
         />
      <path
         d="m 63.723,1013.673 0.684,-1.008 c 0.594,-0.875 1.273,-1.427 2.037,-1.654 0.598,-0.179 1.146,-0.1 1.644,0.238 0.239,0.162 0.432,0.363 0.579,0.602 0.146,0.239 0.236,0.494 0.268,0.766 0.021,0.170 0.007,0.411 -0.041,0.722 -0.048,0.311 -0.115,0.582 -0.201,0.812 -0.114,0.328 -0.297,0.678 -0.550,1.05 l -0.684,1.008 c -0.596,0.879 -1.277,1.432 -2.040,1.659 -0.598,0.179 -1.146,0.1 -1.644,-0.238 -0.242,-0.164 -0.436,-0.365 -0.581,-0.603 -0.145,-0.237 -0.234,-0.493 -0.266,-0.765 -0.022,-0.175 -0.008,-0.418 0.042,-0.729 0.050,-0.310 0.115,-0.580 0.195,-0.809 0.117,-0.326 0.303,-0.676 0.558,-1.051 z m 0.443,0.223 c -0.261,0.384 -0.450,0.779 -0.566,1.183 -0.116,0.404 -0.174,0.751 -0.172,1.041 0.004,0.167 0.043,0.336 0.117,0.504 0.107,0.238 0.275,0.435 0.505,0.591 0.455,0.309 0.970,0.319 1.545,0.03 0.574,-0.289 1.072,-0.744 1.493,-1.365 l 0.609,-0.896 c 0.261,-0.384 0.450,-0.78 0.568,-1.186 0.117,-0.406 0.174,-0.755 0.169,-1.046 -0.002,-0.162 -0.041,-0.328 -0.115,-0.496 -0.105,-0.241 -0.274,-0.441 -0.506,-0.599 -0.452,-0.307 -0.966,-0.315 -1.542,-0.024 -0.575,0.291 -1.074,0.747 -1.495,1.367 z"
         id="path3137"
         />
      <path
         d="m 58.627,1004.877 -2.816,-2.519 -0.128,0.144 c -0.078,0.087 -0.151,0.134 -0.220,0.140 -0.068,0.01 -0.130,-0.015 -0.186,-0.064 -0.052,-0.047 -0.079,-0.104 -0.080,-0.174 -0.001,-0.069 0.037,-0.147 0.115,-0.234 l 0.457,-0.511 3.546,3.172 -0.484,0.541 c -1.344,0 -2.678,0.036 -4.003,0.098 -0.618,0.029 -1.055,0.064 -1.313,0.106 -0.257,0.042 -0.460,0.100 -0.608,0.175 -0.147,0.075 -0.274,0.170 -0.378,0.286 -0.281,0.314 -0.403,0.705 -0.366,1.174 0.037,0.468 0.234,0.862 0.592,1.182 0.320,0.286 0.686,0.448 1.097,0.486 0.411,0.038 0.774,-0.046 1.089,-0.251 0.079,-0.054 0.142,-0.08 0.186,-0.077 0.060,0 0.114,0.024 0.161,0.066 0.049,0.044 0.076,0.098 0.079,0.161 0.003,0.063 -0.015,0.118 -0.057,0.165 -0.125,0.139 -0.370,0.260 -0.737,0.362 -0.366,0.102 -0.745,0.101 -1.137,0 -0.391,-0.104 -0.728,-0.282 -1.011,-0.535 -0.457,-0.408 -0.708,-0.919 -0.753,-1.530 -0.045,-0.611 0.112,-1.118 0.471,-1.520 0.151,-0.168 0.317,-0.299 0.499,-0.390 0.181,-0.092 0.413,-0.162 0.695,-0.210 0.282,-0.049 0.746,-0.089 1.391,-0.119 1.622,-0.079 2.913,-0.111 3.874,-0.096 z"
         id="path3139"
         />
      <path
         d="m 53.632,1000.296 -2.643,-2.700 -0.138,0.135 c -0.083,0.082 -0.160,0.123 -0.229,0.126 -0.069,0.002 -0.129,-0.023 -0.181,-0.076 -0.049,-0.050 -0.072,-0.109 -0.068,-0.178 0.003,-0.069 0.047,-0.144 0.130,-0.226 l 0.489,-0.479 3.328,3.400 -0.519,0.508 c -1.341,-0.086 -2.675,-0.141 -4.000,-0.167 -0.618,-0.012 -1.057,-0.01 -1.317,0.019 -0.259,0.025 -0.466,0.07 -0.618,0.134 -0.152,0.065 -0.284,0.151 -0.396,0.260 -0.301,0.295 -0.449,0.677 -0.443,1.147 0.006,0.469 0.177,0.876 0.513,1.219 0.300,0.307 0.654,0.493 1.063,0.558 0.408,0.065 0.776,0.01 1.104,-0.178 0.083,-0.049 0.147,-0.07 0.191,-0.064 0.060,0.01 0.112,0.032 0.156,0.076 0.046,0.048 0.069,0.103 0.068,0.166 -6.73e-4,0.064 -0.023,0.117 -0.068,0.160 -0.133,0.131 -0.387,0.235 -0.759,0.313 -0.372,0.077 -0.750,0.051 -1.134,-0.078 -0.383,-0.129 -0.708,-0.330 -0.973,-0.600 -0.428,-0.438 -0.645,-0.964 -0.650,-1.577 -0.004,-0.613 0.185,-1.108 0.571,-1.485 0.161,-0.158 0.336,-0.277 0.523,-0.357 0.187,-0.079 0.423,-0.134 0.708,-0.164 0.284,-0.03 0.750,-0.039 1.396,-0.027 1.623,0.028 2.914,0.082 3.872,0.161 z"
         id="path3141"
         />
      <path
         d="m 43.624,998.956 1.828,-1.567 c -0.280,-0.140 -0.529,-0.292 -0.748,-0.454 -0.218,-0.162 -0.405,-0.333 -0.560,-0.514 -0.401,-0.468 -0.573,-1.001 -0.514,-1.6 0.058,-0.598 0.356,-1.127 0.893,-1.587 0.593,-0.508 1.226,-0.742 1.899,-0.701 0.672,0.040 1.238,0.328 1.695,0.861 0.302,0.352 0.514,0.759 0.637,1.220 0.088,0.325 0.132,0.652 0.132,0.982 -0.001,0.196 -0.034,0.322 -0.099,0.378 -0.053,0.045 -0.113,0.066 -0.181,0.062 -0.067,-0.004 -0.121,-0.029 -0.162,-0.076 -0.043,-0.050 -0.062,-0.126 -0.057,-0.228 0.034,-0.806 -0.174,-1.473 -0.627,-2.001 -0.373,-0.435 -0.831,-0.668 -1.373,-0.697 -0.542,-0.029 -1.060,0.168 -1.556,0.592 -0.421,0.360 -0.654,0.774 -0.700,1.240 -0.045,0.466 0.094,0.888 0.419,1.268 0.333,0.388 0.768,0.689 1.305,0.902 0.128,0.054 0.209,0.100 0.242,0.139 0.045,0.053 0.064,0.111 0.057,0.174 -0.007,0.063 -0.044,0.122 -0.109,0.178 l -2.478,2.123 -2.234,-2.607 c -0.076,-0.089 -0.113,-0.168 -0.110,-0.237 0.002,-0.069 0.032,-0.127 0.088,-0.176 0.053,-0.045 0.114,-0.064 0.183,-0.056 0.068,0.008 0.141,0.056 0.217,0.145 z"
         id="path3143"
         />
      <path
         d="m 40.610,984.716 -2.060,-3.168 -0.162,0.105 c -0.098,0.063 -0.181,0.09 -0.249,0.078 -0.068,-0.011 -0.122,-0.048 -0.162,-0.110 -0.038,-0.058 -0.048,-0.121 -0.031,-0.188 0.017,-0.067 0.074,-0.132 0.172,-0.196 l 0.574,-0.373 2.593,3.988 -0.609,0.396 c -1.298,-0.348 -2.594,-0.665 -3.889,-0.951 -0.604,-0.133 -1.036,-0.214 -1.295,-0.240 -0.259,-0.026 -0.470,-0.023 -0.633,0.01 -0.162,0.033 -0.309,0.092 -0.440,0.177 -0.353,0.229 -0.573,0.575 -0.660,1.037 -0.086,0.461 0.001,0.893 0.262,1.296 0.234,0.360 0.544,0.612 0.932,0.756 0.387,0.144 0.759,0.158 1.117,0.042 0.091,-0.031 0.158,-0.039 0.200,-0.025 0.058,0.018 0.104,0.053 0.138,0.105 0.036,0.055 0.047,0.114 0.034,0.176 -0.013,0.062 -0.045,0.110 -0.098,0.144 -0.157,0.102 -0.425,0.154 -0.806,0.157 -0.380,0.003 -0.745,-0.097 -1.096,-0.300 -0.350,-0.202 -0.629,-0.463 -0.836,-0.780 -0.334,-0.514 -0.443,-1.072 -0.326,-1.674 0.116,-0.602 0.400,-1.050 0.852,-1.343 0.189,-0.123 0.384,-0.205 0.583,-0.246 0.199,-0.041 0.441,-0.048 0.726,-0.021 0.285,0.026 0.743,0.109 1.374,0.249 1.586,0.347 2.841,0.654 3.764,0.920 z"
         id="path3145"
         />
      <path
         d="m 34.139,977.104 1.594,2.847 -0.495,0.277 -5.462,-0.077 -0.500,-0.894 4.192,-2.347 -0.200,-0.357 c -0.059,-0.105 -0.081,-0.191 -0.067,-0.257 0.014,-0.066 0.053,-0.117 0.118,-0.153 0.061,-0.034 0.124,-0.040 0.190,-0.019 0.065,0.021 0.128,0.085 0.187,0.190 l 0.200,0.357 1.365,-0.764 -0.200,-0.357 c -0.059,-0.105 -0.081,-0.191 -0.067,-0.257 0.014,-0.066 0.053,-0.117 0.118,-0.153 0.061,-0.034 0.124,-0.040 0.190,-0.019 0.065,0.021 0.128,0.085 0.187,0.190 l 0.893,1.595 c 0.059,0.105 0.080,0.192 0.064,0.259 -0.016,0.067 -0.054,0.117 -0.116,0.152 -0.064,0.036 -0.129,0.043 -0.193,0.020 -0.064,-0.022 -0.125,-0.086 -0.184,-0.192 l -0.449,-0.802 z m -0.429,0.240 -3.757,2.103 0.125,0.224 4.974,0.069 z"
         id="path3147"
         />
      <path
         d="m 28.445,970.710 1.100,-0.523 c 0.955,-0.454 1.820,-0.587 2.594,-0.397 0.606,0.148 1.039,0.493 1.298,1.036 0.124,0.261 0.189,0.531 0.195,0.812 0.005,0.280 -0.046,0.546 -0.155,0.797 -0.067,0.157 -0.201,0.358 -0.400,0.602 -0.199,0.244 -0.394,0.443 -0.584,0.599 -0.264,0.225 -0.599,0.434 -1.005,0.627 l -1.100,0.523 c -0.959,0.456 -1.826,0.589 -2.599,0.400 -0.606,-0.148 -1.039,-0.493 -1.298,-1.036 -0.125,-0.264 -0.191,-0.536 -0.196,-0.814 -0.005,-0.278 0.047,-0.543 0.156,-0.795 0.069,-0.162 0.204,-0.365 0.404,-0.608 0.200,-0.242 0.393,-0.442 0.577,-0.599 0.266,-0.221 0.604,-0.430 1.013,-0.625 z m 0.269,0.416 c -0.419,0.199 -0.782,0.444 -1.087,0.734 -0.305,0.290 -0.530,0.560 -0.674,0.811 -0.081,0.146 -0.132,0.311 -0.153,0.494 -0.027,0.259 0.017,0.514 0.137,0.765 0.236,0.497 0.676,0.766 1.318,0.806 0.642,0.040 1.301,-0.100 1.979,-0.422 l 0.978,-0.465 c 0.419,-0.199 0.783,-0.445 1.090,-0.736 0.307,-0.291 0.532,-0.563 0.675,-0.817 0.079,-0.141 0.129,-0.304 0.151,-0.487 0.031,-0.261 -0.013,-0.519 -0.134,-0.773 -0.235,-0.493 -0.674,-0.760 -1.318,-0.800 -0.643,-0.039 -1.304,0.101 -1.981,0.424 z"
         id="path3149"
         />
      <path
         d="m 28.491,960.546 -1.157,-3.597 -0.184,0.059 c -0.111,0.035 -0.198,0.039 -0.261,0.010 -0.062,-0.029 -0.105,-0.078 -0.128,-0.149 -0.021,-0.066 -0.015,-0.130 0.018,-0.190 0.033,-0.060 0.106,-0.108 0.218,-0.144 l 0.652,-0.209 1.457,4.529 -0.691,0.222 c -1.161,-0.676 -2.329,-1.322 -3.504,-1.937 -0.547,-0.287 -0.943,-0.478 -1.187,-0.572 -0.243,-0.094 -0.448,-0.146 -0.613,-0.156 -0.165,-0.010 -0.322,0.008 -0.471,0.056 -0.401,0.129 -0.704,0.405 -0.909,0.828 -0.204,0.422 -0.233,0.862 -0.086,1.320 0.131,0.409 0.365,0.733 0.701,0.974 0.335,0.240 0.691,0.351 1.067,0.333 0.096,-0.006 0.163,0.003 0.199,0.028 0.051,0.032 0.086,0.078 0.106,0.138 0.020,0.063 0.016,0.123 -0.013,0.179 -0.029,0.056 -0.073,0.094 -0.132,0.113 -0.178,0.057 -0.451,0.037 -0.819,-0.059 -0.367,-0.097 -0.694,-0.289 -0.979,-0.577 -0.285,-0.287 -0.486,-0.611 -0.602,-0.972 -0.187,-0.583 -0.146,-1.151 0.123,-1.701 0.270,-0.550 0.661,-0.908 1.174,-1.073 0.215,-0.069 0.425,-0.097 0.628,-0.085 0.203,0.012 0.438,0.069 0.706,0.169 0.268,0.100 0.688,0.300 1.261,0.600 1.439,0.751 2.570,1.376 3.391,1.875 z"
         id="path3151"
         />
      <path
         d="m 20.138,954.869 2.336,-0.582 c -0.187,-0.251 -0.342,-0.498 -0.465,-0.741 -0.123,-0.243 -0.213,-0.480 -0.271,-0.711 -0.149,-0.598 -0.064,-1.152 0.255,-1.661 0.319,-0.508 0.822,-0.848 1.508,-1.019 0.758,-0.189 1.428,-0.114 2.012,0.222 0.583,0.337 0.960,0.847 1.130,1.529 0.112,0.451 0.120,0.910 0.023,1.377 -0.066,0.330 -0.173,0.643 -0.321,0.937 -0.089,0.175 -0.175,0.273 -0.258,0.294 -0.068,0.017 -0.131,0.009 -0.190,-0.025 -0.058,-0.033 -0.095,-0.080 -0.110,-0.141 -0.016,-0.064 0.001,-0.141 0.051,-0.230 0.391,-0.705 0.503,-1.395 0.334,-2.070 -0.138,-0.557 -0.444,-0.970 -0.916,-1.238 -0.471,-0.268 -1.023,-0.324 -1.656,-0.166 -0.538,0.134 -0.931,0.399 -1.181,0.795 -0.249,0.396 -0.313,0.837 -0.192,1.322 0.123,0.496 0.378,0.960 0.763,1.391 0.090,0.106 0.142,0.183 0.154,0.233 0.017,0.068 0.008,0.128 -0.027,0.181 -0.035,0.053 -0.094,0.09 -0.177,0.110 l -3.166,0.790 -0.831,-3.331 c -0.028,-0.113 -0.025,-0.200 0.007,-0.261 0.033,-0.060 0.085,-0.099 0.157,-0.117 0.068,-0.017 0.131,-0.007 0.188,0.031 0.057,0.037 0.100,0.113 0.129,0.227 z"
         id="path3153"
         />
      <path
         d="m 18.540,947.845 2.370,-0.425 c -0.170,-0.263 -0.308,-0.520 -0.415,-0.770 -0.106,-0.250 -0.180,-0.493 -0.222,-0.727 -0.109,-0.607 0.013,-1.154 0.366,-1.640 0.353,-0.486 0.877,-0.791 1.573,-0.916 0.768,-0.138 1.433,-0.019 1.992,0.356 0.559,0.375 0.901,0.909 1.025,1.601 0.082,0.457 0.059,0.916 -0.068,1.375 -0.088,0.325 -0.216,0.630 -0.383,0.914 -0.100,0.168 -0.193,0.260 -0.277,0.276 -0.069,0.012 -0.131,-1.2e-4 -0.188,-0.037 -0.056,-0.037 -0.090,-0.087 -0.101,-0.148 -0.011,-0.065 0.010,-0.140 0.066,-0.226 0.437,-0.677 0.595,-1.358 0.472,-2.043 -0.101,-0.565 -0.378,-0.997 -0.831,-1.297 -0.452,-0.299 -1.000,-0.391 -1.642,-0.276 -0.545,0.098 -0.956,0.336 -1.231,0.715 -0.275,0.378 -0.368,0.814 -0.280,1.306 0.090,0.503 0.313,0.983 0.669,1.439 0.083,0.112 0.129,0.192 0.138,0.242 0.012,0.069 -6.37e-4,0.129 -0.039,0.179 -0.038,0.050 -0.100,0.083 -0.184,0.098 l -3.212,0.576 -0.606,-3.379 c -0.020,-0.115 -0.012,-0.202 0.024,-0.260 0.037,-0.058 0.092,-0.093 0.165,-0.107 0.069,-0.012 0.131,0.002 0.186,0.043 0.055,0.041 0.093,0.120 0.113,0.235 z"
         id="path3155"
         />
    </g>
    <g
       id="text4236"
       style=";;;;;text-align:start;line-height:125%;letter-spacing:-0.360px;word-spacing:0px;writing-mode:lr-tb;text-anchor:start;fill:#000000;fill-opacity:1;stroke:none;;-inkscape-">
      <path
         d="m 24.338,910.681 0.693,-3.715 -0.190,-0.035 c -0.115,-0.021 -0.193,-0.06 -0.234,-0.115 -0.041,-0.055 -0.055,-0.119 -0.041,-0.192 0.012,-0.069 0.048,-0.122 0.107,-0.158 0.058,-0.036 0.145,-0.044 0.260,-0.022 l 0.673,0.125 -0.873,4.676 -0.714,-0.133 c -0.699,-1.147 -1.419,-2.271 -2.159,-3.371 -0.345,-0.513 -0.602,-0.869 -0.772,-1.068 -0.169,-0.198 -0.324,-0.341 -0.465,-0.429 -0.140,-0.087 -0.287,-0.146 -0.441,-0.174 -0.414,-0.077 -0.812,0.021 -1.193,0.295 -0.381,0.274 -0.615,0.647 -0.703,1.120 -0.078,0.422 -0.027,0.819 0.153,1.190 0.180,0.371 0.441,0.638 0.780,0.801 0.087,0.040 0.141,0.080 0.162,0.119 0.029,0.053 0.038,0.110 0.027,0.172 -0.012,0.065 -0.044,0.115 -0.096,0.151 -0.052,0.035 -0.109,0.048 -0.170,0.036 -0.184,-0.034 -0.415,-0.181 -0.692,-0.442 -0.277,-0.260 -0.472,-0.585 -0.587,-0.973 -0.114,-0.388 -0.136,-0.769 -0.066,-1.142 0.112,-0.602 0.418,-1.082 0.918,-1.437 0.499,-0.355 1.014,-0.484 1.544,-0.385 0.222,0.041 0.420,0.116 0.592,0.223 0.172,0.107 0.352,0.269 0.541,0.485 0.188,0.215 0.462,0.592 0.823,1.128 0.908,1.346 1.605,2.433 2.090,3.263 z"
         id="path3158"
         />
      <path
         d="m 23.247,900.088 c 0.295,-0.347 0.626,-0.582 0.994,-0.703 0.367,-0.121 0.733,-0.135 1.096,-0.041 0.563,0.144 0.997,0.482 1.300,1.012 0.303,0.529 0.377,1.097 0.221,1.702 -0.155,0.605 -0.494,1.066 -1.015,1.384 -0.521,0.317 -1.063,0.404 -1.627,0.259 -0.359,-0.092 -0.671,-0.280 -0.934,-0.564 -0.263,-0.283 -0.442,-0.651 -0.536,-1.102 -0.290,0.296 -0.563,0.496 -0.819,0.599 -0.362,0.140 -0.729,0.163 -1.100,0.067 -0.522,-0.134 -0.927,-0.453 -1.215,-0.956 -0.287,-0.503 -0.358,-1.039 -0.213,-1.606 0.146,-0.571 0.467,-1.007 0.962,-1.307 0.494,-0.300 1.003,-0.383 1.525,-0.249 0.370,0.095 0.679,0.291 0.925,0.588 0.179,0.211 0.324,0.517 0.435,0.916 z m -1.469,-1.013 c -0.408,-0.105 -0.798,-0.043 -1.170,0.186 -0.371,0.229 -0.614,0.565 -0.727,1.007 -0.112,0.438 -0.060,0.848 0.155,1.228 0.216,0.380 0.525,0.622 0.926,0.725 0.370,0.095 0.733,0.028 1.089,-0.200 0.355,-0.229 0.590,-0.567 0.705,-1.013 0.115,-0.450 0.073,-0.861 -0.127,-1.233 -0.200,-0.372 -0.484,-0.605 -0.851,-0.699 z m 3.449,0.747 c -0.419,-0.107 -0.826,-0.039 -1.220,0.206 -0.393,0.245 -0.653,0.610 -0.777,1.094 -0.124,0.484 -0.073,0.928 0.153,1.334 0.226,0.405 0.547,0.661 0.964,0.768 0.431,0.110 0.847,0.043 1.249,-0.201 0.401,-0.245 0.664,-0.608 0.788,-1.088 0.123,-0.480 0.068,-0.925 -0.165,-1.334 -0.233,-0.408 -0.564,-0.668 -0.991,-0.778 z"
         id="path3160"
         />
      <path
         d="m 21.678,894.597 2.286,0.755 c -0.024,-0.312 -0.023,-0.604 0.002,-0.875 0.025,-0.271 0.076,-0.519 0.150,-0.746 0.193,-0.586 0.561,-1.008 1.103,-1.267 0.542,-0.258 1.148,-0.277 1.820,-0.055 0.741,0.245 1.269,0.666 1.582,1.263 0.312,0.597 0.359,1.229 0.138,1.897 -0.145,0.441 -0.384,0.833 -0.715,1.176 -0.232,0.243 -0.490,0.450 -0.772,0.620 -0.168,0.100 -0.294,0.137 -0.375,0.110 -0.066,-0.022 -0.115,-0.063 -0.147,-0.122 -0.031,-0.059 -0.037,-0.119 -0.018,-0.178 0.020,-0.063 0.076,-0.118 0.166,-0.167 0.708,-0.387 1.171,-0.911 1.389,-1.571 0.180,-0.545 0.142,-1.057 -0.112,-1.536 -0.255,-0.479 -0.692,-0.821 -1.311,-1.025 -0.526,-0.174 -1.001,-0.160 -1.423,0.041 -0.422,0.201 -0.712,0.540 -0.869,1.014 -0.160,0.485 -0.193,1.014 -0.097,1.584 0.020,0.138 0.022,0.231 0.006,0.279 -0.022,0.066 -0.062,0.113 -0.120,0.139 -0.057,0.026 -0.127,0.025 -0.209,-10e-4 l -3.098,-1.023 1.077,-3.260 c 0.036,-0.111 0.085,-0.183 0.145,-0.217 0.060,-0.033 0.125,-0.038 0.196,-0.015 0.066,0.022 0.114,0.064 0.143,0.127 0.028,0.062 0.024,0.150 -0.012,0.261 z"
         id="path3162"
         />
      <path
         d="m 30.613,880.144 c 0.381,-0.318 0.783,-0.506 1.205,-0.565 0.422,-0.059 0.805,-0.004 1.149,0.163 0.530,0.258 0.892,0.702 1.088,1.330 0.195,0.627 0.135,1.264 -0.179,1.910 -0.185,0.379 -0.457,0.732 -0.818,1.061 -0.360,0.328 -0.664,0.532 -0.911,0.611 -0.081,0.025 -0.154,0.022 -0.217,-0.008 -0.056,-0.027 -0.095,-0.071 -0.117,-0.132 -0.022,-0.060 -0.019,-0.119 0.007,-0.175 0.027,-0.056 0.084,-0.106 0.171,-0.150 0.669,-0.346 1.152,-0.823 1.448,-1.431 0.250,-0.512 0.299,-1.019 0.146,-1.522 -0.152,-0.502 -0.425,-0.849 -0.818,-1.041 -0.263,-0.128 -0.562,-0.169 -0.898,-0.122 -0.335,0.046 -0.654,0.194 -0.956,0.442 -0.301,0.248 -0.532,0.535 -0.691,0.862 -0.051,0.105 -0.108,0.170 -0.171,0.196 -0.062,0.025 -0.127,0.022 -0.194,-0.01 -0.063,-0.030 -0.105,-0.078 -0.125,-0.142 -0.020,-0.064 -0.009,-0.140 0.033,-0.228 l 0.190,-0.376 c 0.193,-0.396 0.232,-0.783 0.116,-1.159 -0.116,-0.376 -0.334,-0.642 -0.653,-0.798 -0.329,-0.161 -0.687,-0.168 -1.071,-0.021 -0.384,0.146 -0.683,0.437 -0.895,0.873 -0.149,0.305 -0.233,0.611 -0.253,0.919 -0.019,0.307 0.023,0.583 0.130,0.826 0.042,0.090 0.064,0.154 0.066,0.191 0.001,0.037 -0.007,0.075 -0.026,0.114 -0.029,0.059 -0.074,0.100 -0.135,0.123 -0.060,0.022 -0.119,0.019 -0.175,-0.008 -0.140,-0.068 -0.243,-0.307 -0.308,-0.717 -0.090,-0.570 -0.004,-1.125 0.259,-1.666 0.272,-0.558 0.663,-0.934 1.173,-1.128 0.510,-0.194 0.996,-0.178 1.460,0.047 0.294,0.144 0.531,0.366 0.711,0.666 0.179,0.300 0.266,0.656 0.261,1.066 z"
         id="path3164"
         />
      <path
         d="m 34.383,872.679 1.056,0.607 c 0.917,0.527 1.518,1.163 1.802,1.908 0.223,0.583 0.184,1.135 -0.114,1.657 -0.144,0.250 -0.329,0.458 -0.557,0.622 -0.227,0.164 -0.475,0.272 -0.744,0.325 -0.168,0.033 -0.409,0.038 -0.723,0.012 -0.314,-0.025 -0.589,-0.072 -0.825,-0.139 -0.336,-0.089 -0.698,-0.246 -1.088,-0.470 L 32.131,876.595 c -0.921,-0.529 -1.523,-1.166 -1.807,-1.911 -0.223,-0.583 -0.184,-1.135 0.114,-1.657 0.146,-0.253 0.332,-0.462 0.558,-0.624 0.226,-0.162 0.474,-0.270 0.743,-0.322 0.173,-0.035 0.417,-0.039 0.730,-0.012 0.313,0.027 0.587,0.071 0.821,0.134 0.334,0.093 0.697,0.252 1.090,0.478 z m -0.189,0.458 c -0.402,-0.231 -0.810,-0.390 -1.222,-0.476 -0.412,-0.086 -0.762,-0.117 -1.051,-0.094 -0.167,0.016 -0.332,0.068 -0.494,0.154 -0.229,0.124 -0.413,0.307 -0.551,0.547 -0.274,0.477 -0.245,0.991 0.085,1.543 0.331,0.551 0.822,1.013 1.473,1.387 l 0.939,0.540 c 0.402,0.231 0.811,0.391 1.225,0.478 0.414,0.087 0.766,0.117 1.056,0.090 0.161,-0.015 0.324,-0.066 0.486,-0.152 0.232,-0.122 0.419,-0.306 0.559,-0.550 0.272,-0.474 0.242,-0.987 -0.091,-1.539 -0.333,-0.552 -0.825,-1.015 -1.475,-1.389 z"
         id="path3166"
         />
      <path
         d="m 38.270,866.708 1.013,0.677 c 0.880,0.588 1.436,1.263 1.669,2.025 0.183,0.597 0.107,1.145 -0.226,1.645 -0.160,0.240 -0.359,0.434 -0.597,0.583 -0.238,0.148 -0.492,0.240 -0.764,0.274 -0.170,0.022 -0.411,0.010 -0.723,-0.035 -0.311,-0.046 -0.583,-0.111 -0.813,-0.195 -0.329,-0.112 -0.680,-0.292 -1.053,-0.542 l -1.013,-0.677 c -0.883,-0.590 -1.441,-1.266 -1.674,-2.028 -0.183,-0.597 -0.107,-1.145 0.226,-1.645 0.162,-0.243 0.362,-0.438 0.599,-0.585 0.236,-0.147 0.491,-0.237 0.763,-0.272 0.175,-0.023 0.418,-0.011 0.729,0.036 0.310,0.048 0.581,0.111 0.810,0.189 0.327,0.115 0.678,0.298 1.055,0.550 z m -0.219,0.444 c -0.386,-0.258 -0.782,-0.444 -1.188,-0.558 -0.405,-0.113 -0.753,-0.168 -1.042,-0.164 -0.167,0.005 -0.335,0.045 -0.503,0.121 -0.237,0.109 -0.433,0.278 -0.587,0.509 -0.306,0.457 -0.312,0.973 -0.018,1.545 0.293,0.572 0.752,1.067 1.376,1.483 l 0.901,0.602 c 0.386,0.258 0.783,0.444 1.190,0.559 0.407,0.114 0.756,0.168 1.047,0.161 0.162,-0.004 0.327,-0.044 0.495,-0.119 0.240,-0.106 0.439,-0.277 0.595,-0.511 0.303,-0.454 0.308,-0.968 0.012,-1.542 -0.295,-0.573 -0.755,-1.068 -1.378,-1.485 z"
         id="path3168"
         />
      <path
         d="m 46.586,856.739 c 0.452,-0.204 0.889,-0.279 1.312,-0.224 0.422,0.055 0.777,0.210 1.064,0.463 0.441,0.390 0.673,0.914 0.694,1.571 0.021,0.657 -0.206,1.255 -0.682,1.793 -0.279,0.316 -0.636,0.584 -1.071,0.804 -0.434,0.220 -0.781,0.335 -1.041,0.346 -0.085,0.003 -0.154,-0.019 -0.207,-0.066 -0.046,-0.041 -0.072,-0.094 -0.078,-0.159 -0.005,-0.064 0.012,-0.120 0.054,-0.167 0.041,-0.046 0.109,-0.080 0.205,-0.099 0.737,-0.156 1.330,-0.487 1.777,-0.993 0.377,-0.427 0.560,-0.903 0.547,-1.428 -0.012,-0.525 -0.183,-0.932 -0.511,-1.222 -0.219,-0.194 -0.497,-0.313 -0.833,-0.357 -0.336,-0.044 -0.682,0.013 -1.039,0.171 -0.356,0.158 -0.655,0.374 -0.896,0.646 -0.077,0.087 -0.150,0.135 -0.217,0.144 -0.067,0.008 -0.128,-0.012 -0.184,-0.061 -0.052,-0.046 -0.080,-0.103 -0.083,-0.171 -0.002,-0.067 0.028,-0.138 0.092,-0.211 l 0.283,-0.312 c 0.292,-0.330 0.432,-0.692 0.420,-1.086 -0.011,-0.393 -0.150,-0.708 -0.417,-0.943 -0.275,-0.243 -0.617,-0.345 -1.027,-0.306 -0.409,0.039 -0.775,0.240 -1.096,0.603 -0.225,0.254 -0.388,0.527 -0.489,0.818 -0.101,0.291 -0.132,0.568 -0.094,0.831 0.017,0.098 0.021,0.166 0.012,0.202 -0.008,0.036 -0.027,0.070 -0.055,0.103 -0.043,0.049 -0.098,0.077 -0.163,0.082 -0.064,0.005 -0.120,-0.012 -0.167,-0.054 -0.117,-0.103 -0.152,-0.361 -0.105,-0.773 0.064,-0.574 0.295,-1.086 0.694,-1.537 0.411,-0.465 0.888,-0.723 1.432,-0.775 0.543,-0.051 1.008,0.093 1.394,0.435 0.245,0.217 0.415,0.494 0.507,0.832 0.092,0.337 0.082,0.703 -0.031,1.097 z"
         id="path3170"
         />
      <path
         d="m 48.543,849.711 4.894,4.949 1.199,-1.186 c 0.083,-0.082 0.158,-0.125 0.226,-0.129 0.067,-0.004 0.127,0.020 0.179,0.073 0.049,0.05 0.072,0.109 0.069,0.178 -0.003,0.069 -0.046,0.144 -0.129,0.227 l -2.749,2.719 c -0.083,0.082 -0.159,0.124 -0.228,0.127 -0.069,0.002 -0.128,-0.021 -0.177,-0.071 -0.052,-0.052 -0.076,-0.112 -0.071,-0.180 0.004,-0.067 0.048,-0.142 0.131,-0.225 l 1.199,-1.186 -4.416,-4.466 -0.787,1.487 c -0.039,0.071 -0.071,0.119 -0.096,0.144 -0.041,0.041 -0.097,0.061 -0.166,0.061 -0.069,-3.8e-4 -0.126,-0.024 -0.173,-0.071 -0.041,-0.041 -0.065,-0.094 -0.073,-0.157 2.51e-4,-0.044 0.022,-0.113 0.067,-0.206 z"
         id="path3172"
         />
      <path
         d="m 53.119,846.242 1.574,1.822 c 0.139,-0.280 0.289,-0.530 0.451,-0.750 0.161,-0.219 0.332,-0.407 0.512,-0.562 0.466,-0.403 0.999,-0.577 1.597,-0.521 0.598,0.056 1.128,0.351 1.590,0.886 0.510,0.591 0.747,1.223 0.709,1.896 -0.037,0.672 -0.322,1.239 -0.854,1.699 -0.351,0.303 -0.757,0.518 -1.218,0.642 -0.325,0.089 -0.652,0.135 -0.981,0.136 -0.196,-4.7e-4 -0.322,-0.033 -0.379,-0.098 -0.045,-0.053 -0.067,-0.113 -0.063,-0.181 0.003,-0.067 0.028,-0.121 0.076,-0.162 0.050,-0.043 0.126,-0.062 0.228,-0.058 0.806,0.031 1.472,-0.180 1.998,-0.635 0.434,-0.375 0.665,-0.834 0.692,-1.376 0.027,-0.542 -0.172,-1.060 -0.599,-1.553 -0.362,-0.419 -0.777,-0.651 -1.243,-0.695 -0.466,-0.043 -0.888,0.098 -1.266,0.424 -0.387,0.334 -0.686,0.771 -0.897,1.309 -0.053,0.129 -0.099,0.210 -0.138,0.243 -0.053,0.046 -0.111,0.065 -0.174,0.057 -0.063,-0.007 -0.122,-0.043 -0.179,-0.108 l -2.134,-2.469 2.597,-2.245 c 0.088,-0.076 0.167,-0.113 0.236,-0.111 0.069,0.002 0.127,0.031 0.176,0.087 0.045,0.053 0.065,0.114 0.057,0.182 -0.007,0.068 -0.055,0.141 -0.144,0.217 z"
         id="path3174"
         />
      <path
         d="m 68.199,838.420 c 0.490,-0.077 0.932,-0.033 1.324,0.132 0.392,0.165 0.693,0.408 0.903,0.729 0.322,0.493 0.406,1.060 0.252,1.699 -0.154,0.639 -0.532,1.155 -1.133,1.548 -0.353,0.230 -0.768,0.394 -1.246,0.491 -0.477,0.097 -0.842,0.116 -1.095,0.057 -0.083,-0.020 -0.144,-0.059 -0.182,-0.118 -0.034,-0.052 -0.045,-0.110 -0.033,-0.174 0.011,-0.063 0.044,-0.112 0.096,-0.146 0.052,-0.034 0.127,-0.048 0.224,-0.041 0.752,0.045 1.411,-0.116 1.977,-0.486 0.477,-0.311 0.779,-0.722 0.906,-1.232 0.126,-0.509 0.070,-0.947 -0.168,-1.313 -0.160,-0.245 -0.396,-0.433 -0.708,-0.565 -0.312,-0.131 -0.661,-0.168 -1.047,-0.110 -0.386,0.058 -0.731,0.187 -1.035,0.385 -0.098,0.064 -0.180,0.091 -0.247,0.081 -0.067,-0.01 -0.120,-0.045 -0.161,-0.108 -0.038,-0.058 -0.050,-0.121 -0.034,-0.187 0.015,-0.065 0.063,-0.125 0.145,-0.178 l 0.356,-0.225 c 0.369,-0.241 0.600,-0.553 0.694,-0.935 0.093,-0.382 0.042,-0.722 -0.151,-1.020 -0.200,-0.307 -0.503,-0.496 -0.909,-0.567 -0.405,-0.071 -0.811,0.025 -1.216,0.290 -0.284,0.185 -0.514,0.405 -0.688,0.659 -0.174,0.254 -0.278,0.513 -0.311,0.777 -0.009,0.099 -0.023,0.165 -0.041,0.198 -0.018,0.032 -0.045,0.061 -0.081,0.084 -0.055,0.036 -0.115,0.048 -0.179,0.036 -0.063,-0.012 -0.112,-0.044 -0.146,-0.096 -0.085,-0.130 -0.050,-0.388 0.103,-0.774 0.214,-0.536 0.573,-0.969 1.077,-1.297 0.520,-0.339 1.048,-0.461 1.586,-0.367 0.537,0.094 0.947,0.357 1.229,0.789 0.179,0.274 0.268,0.587 0.268,0.937 -1.26e-4,0.349 -0.107,0.699 -0.322,1.050 z"
         id="path3176"
         />
      <path
         d="m 74.309,834.798 c 0.494,-0.044 0.932,0.029 1.312,0.221 0.380,0.191 0.664,0.454 0.851,0.788 0.288,0.514 0.334,1.085 0.137,1.713 -0.196,0.627 -0.608,1.117 -1.235,1.468 -0.367,0.206 -0.793,0.341 -1.276,0.406 -0.483,0.064 -0.848,0.059 -1.097,-0.016 -0.081,-0.025 -0.139,-0.069 -0.174,-0.130 -0.030,-0.054 -0.037,-0.113 -0.021,-0.176 0.016,-0.062 0.051,-0.109 0.106,-0.140 0.054,-0.030 0.130,-0.039 0.226,-0.026 0.747,0.095 1.416,-0.021 2.005,-0.352 0.497,-0.278 0.826,-0.668 0.987,-1.168 0.160,-0.499 0.134,-0.940 -0.079,-1.322 -0.143,-0.255 -0.366,-0.459 -0.669,-0.612 -0.302,-0.152 -0.648,-0.212 -1.038,-0.180 -0.389,0.032 -0.742,0.137 -1.059,0.315 -0.102,0.057 -0.186,0.078 -0.252,0.064 -0.066,-0.014 -0.117,-0.053 -0.153,-0.118 -0.034,-0.061 -0.041,-0.124 -0.022,-0.189 0.019,-0.064 0.072,-0.121 0.157,-0.168 l 0.370,-0.201 c 0.385,-0.215 0.636,-0.511 0.755,-0.887 0.118,-0.375 0.090,-0.718 -0.082,-1.028 -0.179,-0.320 -0.469,-0.529 -0.869,-0.627 -0.399,-0.098 -0.811,-0.028 -1.233,0.208 -0.296,0.166 -0.540,0.370 -0.731,0.611 -0.191,0.241 -0.312,0.493 -0.362,0.754 -0.016,0.098 -0.034,0.163 -0.055,0.195 -0.020,0.031 -0.049,0.057 -0.086,0.078 -0.057,0.032 -0.118,0.040 -0.181,0.024 -0.062,-0.016 -0.109,-0.051 -0.140,-0.106 -0.076,-0.136 -0.024,-0.391 0.155,-0.765 0.249,-0.520 0.637,-0.928 1.161,-1.222 0.541,-0.303 1.077,-0.390 1.607,-0.259 0.529,0.130 0.921,0.420 1.173,0.870 0.160,0.286 0.228,0.603 0.205,0.953 -0.023,0.349 -0.154,0.691 -0.392,1.025 z"
         id="path3178"
         />
      <path
         d="m 81.657,830.805 0.523,1.100 c 0.454,0.956 0.586,1.821 0.396,2.594 -0.148,0.606 -0.494,1.039 -1.037,1.297 -0.261,0.124 -0.531,0.188 -0.812,0.194 -0.280,0.006 -0.546,-0.046 -0.797,-0.156 -0.157,-0.067 -0.358,-0.201 -0.602,-0.401 -0.244,-0.199 -0.443,-0.394 -0.598,-0.584 -0.225,-0.264 -0.434,-0.600 -0.627,-1.005 l -0.523,-1.100 c -0.456,-0.959 -0.588,-1.826 -0.398,-2.600 0.148,-0.606 0.494,-1.039 1.037,-1.297 0.264,-0.125 0.536,-0.191 0.815,-0.195 0.278,-0.005 0.543,0.047 0.794,0.157 0.162,0.069 0.365,0.204 0.607,0.405 0.242,0.200 0.442,0.393 0.599,0.578 0.221,0.266 0.429,0.604 0.624,1.013 z m -0.416,0.269 c -0.199,-0.419 -0.444,-0.782 -0.734,-1.087 -0.290,-0.305 -0.560,-0.530 -0.810,-0.675 -0.146,-0.081 -0.311,-0.132 -0.494,-0.154 -0.259,-0.027 -0.514,0.017 -0.765,0.136 -0.497,0.236 -0.766,0.675 -0.807,1.317 -0.040,0.642 0.099,1.301 0.421,1.979 l 0.465,0.979 c 0.199,0.419 0.444,0.783 0.735,1.090 0.290,0.307 0.563,0.532 0.817,0.675 0.141,0.079 0.304,0.130 0.487,0.151 0.261,0.031 0.519,-0.013 0.773,-0.133 0.493,-0.234 0.760,-0.674 0.800,-1.317 0.039,-0.643 -0.100,-1.304 -0.422,-1.982 z"
         id="path3180"
         />
      <path
         d="m 93.909,826.507 c 0.493,0.056 0.907,0.216 1.241,0.480 0.334,0.264 0.559,0.579 0.675,0.943 0.179,0.562 0.109,1.130 -0.209,1.705 -0.318,0.575 -0.820,0.971 -1.505,1.189 -0.401,0.128 -0.846,0.175 -1.332,0.141 -0.486,-0.033 -0.843,-0.112 -1.071,-0.236 -0.074,-0.041 -0.122,-0.096 -0.144,-0.163 -0.018,-0.059 -0.014,-0.118 0.014,-0.176 0.028,-0.058 0.072,-0.096 0.132,-0.115 0.059,-0.019 0.135,-0.012 0.227,0.019 0.713,0.244 1.391,0.263 2.035,0.058 0.543,-0.173 0.944,-0.488 1.202,-0.945 0.258,-0.457 0.320,-0.894 0.187,-1.311 -0.088,-0.279 -0.266,-0.523 -0.532,-0.734 -0.265,-0.210 -0.592,-0.338 -0.980,-0.385 -0.387,-0.046 -0.754,-0.014 -1.101,0.095 -0.111,0.035 -0.198,0.039 -0.260,0.012 -0.062,-0.027 -0.104,-0.076 -0.126,-0.147 -0.021,-0.067 -0.015,-0.130 0.016,-0.189 0.032,-0.059 0.094,-0.104 0.188,-0.133 l 0.403,-0.122 c 0.420,-0.133 0.726,-0.372 0.918,-0.716 0.191,-0.343 0.233,-0.685 0.125,-1.024 -0.111,-0.349 -0.353,-0.613 -0.725,-0.789 -0.371,-0.176 -0.788,-0.191 -1.250,-0.044 -0.323,0.103 -0.603,0.253 -0.839,0.452 -0.236,0.198 -0.405,0.420 -0.507,0.665 -0.035,0.093 -0.066,0.153 -0.093,0.180 -0.026,0.026 -0.059,0.046 -0.100,0.059 -0.063,0.020 -0.124,0.016 -0.182,-0.012 -0.058,-0.028 -0.096,-0.072 -0.115,-0.132 -0.047,-0.148 0.054,-0.388 0.306,-0.718 0.349,-0.459 0.810,-0.781 1.384,-0.963 0.591,-0.188 1.134,-0.165 1.626,0.068 0.492,0.234 0.817,0.597 0.974,1.088 0.099,0.312 0.102,0.637 0.009,0.974 -0.093,0.337 -0.290,0.645 -0.590,0.926 z"
         id="path3182"
         />
      <path
         d="m 101.139,826.558 -3.169,0.778 -0.135,-0.551 1.529,-5.244 0.995,-0.244 1.145,4.666 0.398,-0.097 c 0.117,-0.028 0.206,-0.027 0.266,0.004 0.06,0.031 0.098,0.083 0.116,0.155 0.016,0.068 0.006,0.131 -0.032,0.188 -0.038,0.057 -0.116,0.100 -0.233,0.129 l -0.398,0.097 0.373,1.519 0.398,-0.097 c 0.117,-0.028 0.206,-0.027 0.266,0.004 0.06,0.031 0.098,0.083 0.116,0.155 0.016,0.068 0.006,0.131 -0.032,0.188 -0.038,0.057 -0.116,0.100 -0.233,0.129 l -1.775,0.436 c -0.117,0.028 -0.206,0.026 -0.267,-0.007 -0.060,-0.033 -0.099,-0.084 -0.115,-0.152 -0.017,-0.072 -0.007,-0.135 0.031,-0.191 0.038,-0.055 0.116,-0.098 0.234,-0.126 l 0.893,-0.219 z m -0.117,-0.477 -1.027,-4.182 -0.250,0.061 -1.391,4.776 z"
         id="path3184"
         />
      <path
         d="m 104.908,820.850 0.415,2.372 c 0.263,-0.169 0.521,-0.306 0.772,-0.411 0.251,-0.105 0.494,-0.178 0.728,-0.219 0.607,-0.106 1.154,0.017 1.638,0.373 0.484,0.355 0.787,0.881 0.909,1.577 0.134,0.769 0.013,1.433 -0.365,1.991 -0.378,0.557 -0.913,0.897 -1.606,1.018 -0.457,0.080 -0.916,0.055 -1.375,-0.074 -0.325,-0.089 -0.629,-0.218 -0.912,-0.387 -0.168,-0.101 -0.260,-0.194 -0.274,-0.279 -0.012,-0.069 6.8e-4,-0.131 0.038,-0.188 0.037,-0.056 0.087,-0.089 0.148,-0.100 0.065,-0.011 0.140,0.011 0.225,0.067 0.676,0.440 1.356,0.601 2.041,0.481 0.565,-0.099 0.999,-0.374 1.300,-0.825 0.301,-0.451 0.396,-0.998 0.283,-1.640 -0.095,-0.546 -0.332,-0.958 -0.710,-1.234 -0.377,-0.276 -0.812,-0.372 -1.305,-0.285 -0.504,0.088 -0.984,0.309 -1.442,0.663 -0.112,0.083 -0.193,0.129 -0.243,0.137 -0.069,0.012 -0.129,-10e-4 -0.179,-0.039 -0.050,-0.038 -0.083,-0.100 -0.097,-0.185 l -0.563,-3.214 3.382,-0.592 c 0.115,-0.020 0.202,-0.011 0.260,0.025 0.058,0.037 0.093,0.092 0.106,0.165 0.012,0.069 -0.003,0.131 -0.044,0.186 -0.041,0.054 -0.120,0.092 -0.236,0.112 z"
         id="path3186"
         />
    </g>
  </g>
</svg>
